solid CATIA STL
  facet normal  0.000000e+000  0.000000e+000  1.000000e+000
    outer loop
      vertex -3.500000e+001  2.100000e+001  2.000000e+001
      vertex -3.500000e+001  1.800000e+001  2.000000e+001
      vertex  3.400000e+001  2.100000e+001  2.000000e+001
    endloop
  endfacet
  facet normal  0.000000e+000  0.000000e+000  1.000000e+000
    outer loop
      vertex  3.400000e+001  2.100000e+001  2.000000e+001
      vertex -3.500000e+001  1.800000e+001  2.000000e+001
      vertex  3.100000e+001  1.800000e+001  2.000000e+001
    endloop
  endfacet
  facet normal  -0.000000e+000  0.000000e+000  1.000000e+000
    outer loop
      vertex  3.400000e+001  2.100000e+001  2.000000e+001
      vertex  3.100000e+001  1.800000e+001  2.000000e+001
      vertex  3.400000e+001 -2.100000e+001  2.000000e+001
    endloop
  endfacet
  facet normal  0.000000e+000  0.000000e+000  1.000000e+000
    outer loop
      vertex  3.400000e+001 -2.100000e+001  2.000000e+001
      vertex  3.100000e+001  1.800000e+001  2.000000e+001
      vertex  3.100000e+001 -1.800000e+001  2.000000e+001
    endloop
  endfacet
  facet normal  0.000000e+000  0.000000e+000  1.000000e+000
    outer loop
      vertex  3.400000e+001 -2.100000e+001  2.000000e+001
      vertex  3.100000e+001 -1.800000e+001  2.000000e+001
      vertex -3.500000e+001 -2.100000e+001  2.000000e+001
    endloop
  endfacet
  facet normal  0.000000e+000  0.000000e+000  1.000000e+000
    outer loop
      vertex -3.500000e+001 -2.100000e+001  2.000000e+001
      vertex  3.100000e+001 -1.800000e+001  2.000000e+001
      vertex -3.500000e+001 -1.800000e+001  2.000000e+001
    endloop
  endfacet
  facet normal -1.000000e+000  -0.000000e+000  -0.000000e+000
    outer loop
      vertex -3.500000e+001 -1.700000e+001  5.000000e+000
      vertex -3.500000e+001  1.700000e+001  5.000000e+000
      vertex -3.500000e+001  2.200000e+001  0.000000e+000
    endloop
  endfacet
  facet normal -9.999999e-001  0.000000e+000  0.000000e+000
    outer loop
      vertex -3.500000e+001 -1.700000e+001  5.000000e+000
      vertex -3.500000e+001  2.200000e+001  0.000000e+000
      vertex -3.500000e+001 -2.200000e+001  0.000000e+000
    endloop
  endfacet
  facet normal -1.000000e+000  0.000000e+000  0.000000e+000
    outer loop
      vertex -3.500000e+001 -1.700000e+001  5.000000e+000
      vertex -3.500000e+001 -2.200000e+001  0.000000e+000
      vertex -3.500000e+001 -2.200000e+001  1.900000e+001
    endloop
  endfacet
  facet normal -1.000000e+000  0.000000e+000  0.000000e+000
    outer loop
      vertex -3.500000e+001 -1.700000e+001  5.000000e+000
      vertex -3.500000e+001 -2.200000e+001  1.900000e+001
      vertex -3.500000e+001 -2.170711e+001  1.970711e+001
    endloop
  endfacet
  facet normal -1.000000e+000  0.000000e+000  0.000000e+000
    outer loop
      vertex -3.500000e+001 -1.700000e+001  5.000000e+000
      vertex -3.500000e+001 -2.170711e+001  1.970711e+001
      vertex -3.500000e+001 -2.100000e+001  2.000000e+001
    endloop
  endfacet
  facet normal -1.000000e+000  0.000000e+000  0.000000e+000
    outer loop
      vertex -3.500000e+001 -1.700000e+001  5.000000e+000
      vertex -3.500000e+001 -2.100000e+001  2.000000e+001
      vertex -3.500000e+001 -1.800000e+001  2.000000e+001
    endloop
  endfacet
  facet normal -1.000000e+000  0.000000e+000  0.000000e+000
    outer loop
      vertex -3.500000e+001 -1.700000e+001  5.000000e+000
      vertex -3.500000e+001 -1.800000e+001  2.000000e+001
      vertex -3.500000e+001 -1.729289e+001  1.970711e+001
    endloop
  endfacet
  facet normal -1.000000e+000  0.000000e+000  0.000000e+000
    outer loop
      vertex -3.500000e+001 -1.700000e+001  5.000000e+000
      vertex -3.500000e+001 -1.729289e+001  1.970711e+001
      vertex -3.500000e+001 -1.700000e+001  1.900000e+001
    endloop
  endfacet
  facet normal -1.000000e+000  0.000000e+000  0.000000e+000
    outer loop
      vertex -3.500000e+001  1.700000e+001  5.000000e+000
      vertex -3.500000e+001  1.700000e+001  1.900000e+001
      vertex -3.500000e+001  2.200000e+001  0.000000e+000
    endloop
  endfacet
  facet normal -1.000000e+000  0.000000e+000  0.000000e+000
    outer loop
      vertex -3.500000e+001  2.200000e+001  0.000000e+000
      vertex -3.500000e+001  1.700000e+001  1.900000e+001
      vertex -3.500000e+001  1.729289e+001  1.970711e+001
    endloop
  endfacet
  facet normal -1.000000e+000  0.000000e+000  0.000000e+000
    outer loop
      vertex -3.500000e+001  2.200000e+001  0.000000e+000
      vertex -3.500000e+001  1.729289e+001  1.970711e+001
      vertex -3.500000e+001  2.100000e+001  2.000000e+001
    endloop
  endfacet
  facet normal -1.000000e+000  -0.000000e+000  0.000000e+000
    outer loop
      vertex -3.500000e+001  2.100000e+001  2.000000e+001
      vertex -3.500000e+001  1.729289e+001  1.970711e+001
      vertex -3.500000e+001  1.800000e+001  2.000000e+001
    endloop
  endfacet
  facet normal -9.999999e-001  0.000000e+000  0.000000e+000
    outer loop
      vertex -3.500000e+001  2.170711e+001  1.970711e+001
      vertex -3.500000e+001  2.200000e+001  1.900000e+001
      vertex -3.500000e+001  2.100000e+001  2.000000e+001
    endloop
  endfacet
  facet normal -1.000000e+000  0.000000e+000  0.000000e+000
    outer loop
      vertex -3.500000e+001  2.100000e+001  2.000000e+001
      vertex -3.500000e+001  2.200000e+001  1.900000e+001
      vertex -3.500000e+001  2.200000e+001  0.000000e+000
    endloop
  endfacet
  facet normal  3.826823e-001  -0.000000e+000  9.238801e-001
    outer loop
      vertex  3.400000e+001  2.100000e+001  2.000000e+001
      vertex  3.400000e+001 -2.100000e+001  2.000000e+001
      vertex  3.470711e+001  2.100000e+001  1.970711e+001
    endloop
  endfacet
  facet normal  3.826823e-001  0.000000e+000  9.238801e-001
    outer loop
      vertex  3.470711e+001  2.100000e+001  1.970711e+001
      vertex  3.400000e+001 -2.100000e+001  2.000000e+001
      vertex  3.470711e+001 -2.100000e+001  1.970711e+001
    endloop
  endfacet
  facet normal  9.238801e-001  -0.000000e+000  3.826823e-001
    outer loop
      vertex  3.470711e+001  2.100000e+001  1.970711e+001
      vertex  3.470711e+001 -2.100000e+001  1.970711e+001
      vertex  3.500000e+001  2.100000e+001  1.900000e+001
    endloop
  endfacet
  facet normal  9.238801e-001  0.000000e+000  3.826823e-001
    outer loop
      vertex  3.500000e+001  2.100000e+001  1.900000e+001
      vertex  3.470711e+001 -2.100000e+001  1.970711e+001
      vertex  3.500000e+001 -2.100000e+001  1.900000e+001
    endloop
  endfacet
  facet normal  1.000000e+000  0.000000e+000  0.000000e+000
    outer loop
      vertex  3.500000e+001 -2.100000e+001  1.900000e+001
      vertex  3.500000e+001 -2.100000e+001  0.000000e+000
      vertex  3.500000e+001  2.100000e+001  1.900000e+001
    endloop
  endfacet
  facet normal  1.000000e+000  0.000000e+000  0.000000e+000
    outer loop
      vertex  3.500000e+001  2.100000e+001  1.900000e+001
      vertex  3.500000e+001 -2.100000e+001  0.000000e+000
      vertex  3.500000e+001  2.100000e+001  0.000000e+000
    endloop
  endfacet
  facet normal  -0.000000e+000  0.000000e+000 -9.999999e-001
    outer loop
      vertex -3.100000e+001  8.000000e+000  0.000000e+000
      vertex -3.241422e+001 -8.585787e+000  0.000000e+000
      vertex -3.300000e+001 -1.000000e+001  0.000000e+000
    endloop
  endfacet
  facet normal  -0.000000e+000  0.000000e+000 -9.999999e-001
    outer loop
      vertex -3.100000e+001  8.000000e+000  0.000000e+000
      vertex -3.100000e+001 -8.000000e+000  0.000000e+000
      vertex -3.241422e+001 -8.585787e+000  0.000000e+000
    endloop
  endfacet
  facet normal  0.000000e+000  0.000000e+000 -9.999999e-001
    outer loop
      vertex  2.700000e+001 -8.000000e+000  0.000000e+000
      vertex  2.700000e+001  8.000000e+000  0.000000e+000
      vertex  2.841421e+001 -8.585787e+000  0.000000e+000
    endloop
  endfacet
  facet normal  0.000000e+000  0.000000e+000 -1.000000e+000
    outer loop
      vertex -3.500000e+001 -2.200000e+001  0.000000e+000
      vertex -3.500000e+001  2.200000e+001  0.000000e+000
      vertex -3.300000e+001  1.000000e+001  0.000000e+000
    endloop
  endfacet
  facet normal  0.000000e+000  -0.000000e+000 -1.000000e+000
    outer loop
      vertex -3.500000e+001 -2.200000e+001  0.000000e+000
      vertex -3.300000e+001  1.000000e+001  0.000000e+000
      vertex -3.241422e+001  8.585787e+000  0.000000e+000
    endloop
  endfacet
  facet normal  0.000000e+000  -0.000000e+000 -1.000000e+000
    outer loop
      vertex -3.500000e+001 -2.200000e+001  0.000000e+000
      vertex -3.241422e+001  8.585787e+000  0.000000e+000
      vertex -3.100000e+001  8.000000e+000  0.000000e+000
    endloop
  endfacet
  facet normal  0.000000e+000  0.000000e+000 -1.000000e+000
    outer loop
      vertex -3.500000e+001 -2.200000e+001  0.000000e+000
      vertex -3.100000e+001  8.000000e+000  0.000000e+000
      vertex -3.300000e+001 -1.000000e+001  0.000000e+000
    endloop
  endfacet
  facet normal  0.000000e+000  -0.000000e+000 -1.000000e+000
    outer loop
      vertex -3.500000e+001 -2.200000e+001  0.000000e+000
      vertex -3.300000e+001 -1.000000e+001  0.000000e+000
      vertex -3.241422e+001 -1.141421e+001  0.000000e+000
    endloop
  endfacet
  facet normal  0.000000e+000  -0.000000e+000 -1.000000e+000
    outer loop
      vertex -3.500000e+001 -2.200000e+001  0.000000e+000
      vertex -3.241422e+001 -1.141421e+001  0.000000e+000
      vertex -3.100000e+001 -1.200000e+001  0.000000e+000
    endloop
  endfacet
  facet normal  -0.000000e+000  0.000000e+000 -1.000000e+000
    outer loop
      vertex -3.500000e+001  2.200000e+001  0.000000e+000
      vertex  3.400000e+001  2.200000e+001  0.000000e+000
      vertex  2.700000e+001  1.200000e+001  0.000000e+000
    endloop
  endfacet
  facet normal  0.000000e+000  0.000000e+000 -1.000000e+000
    outer loop
      vertex -3.500000e+001  2.200000e+001  0.000000e+000
      vertex  2.700000e+001  1.200000e+001  0.000000e+000
      vertex -3.100000e+001  1.200000e+001  0.000000e+000
    endloop
  endfacet
  facet normal  -0.000000e+000  0.000000e+000 -1.000000e+000
    outer loop
      vertex -3.500000e+001  2.200000e+001  0.000000e+000
      vertex -3.100000e+001  1.200000e+001  0.000000e+000
      vertex -3.241422e+001  1.141421e+001  0.000000e+000
    endloop
  endfacet
  facet normal  -0.000000e+000  0.000000e+000 -1.000000e+000
    outer loop
      vertex -3.500000e+001  2.200000e+001  0.000000e+000
      vertex -3.241422e+001  1.141421e+001  0.000000e+000
      vertex -3.300000e+001  1.000000e+001  0.000000e+000
    endloop
  endfacet
  facet normal  0.000000e+000  0.000000e+000 -1.000000e+000
    outer loop
      vertex  3.500000e+001 -2.100000e+001  0.000000e+000
      vertex  2.700000e+001 -1.200000e+001  0.000000e+000
      vertex  2.841421e+001 -1.141421e+001  0.000000e+000
    endloop
  endfacet
  facet normal  0.000000e+000  0.000000e+000 -1.000000e+000
    outer loop
      vertex  3.500000e+001 -2.100000e+001  0.000000e+000
      vertex  2.841421e+001 -1.141421e+001  0.000000e+000
      vertex  2.900000e+001 -1.000000e+001  0.000000e+000
    endloop
  endfacet
  facet normal  0.000000e+000  0.000000e+000 -1.000000e+000
    outer loop
      vertex  3.500000e+001 -2.100000e+001  0.000000e+000
      vertex  2.900000e+001 -1.000000e+001  0.000000e+000
      vertex  2.841421e+001 -8.585787e+000  0.000000e+000
    endloop
  endfacet
  facet normal  0.000000e+000  0.000000e+000 -1.000000e+000
    outer loop
      vertex  3.500000e+001 -2.100000e+001  0.000000e+000
      vertex  2.841421e+001 -8.585787e+000  0.000000e+000
      vertex  2.700000e+001  8.000000e+000  0.000000e+000
    endloop
  endfacet
  facet normal  0.000000e+000  0.000000e+000 -9.999999e-001
    outer loop
      vertex  3.500000e+001 -2.100000e+001  0.000000e+000
      vertex  2.700000e+001  8.000000e+000  0.000000e+000
      vertex  2.841421e+001  8.585787e+000  0.000000e+000
    endloop
  endfacet
  facet normal  0.000000e+000  0.000000e+000 -1.000000e+000
    outer loop
      vertex  3.500000e+001 -2.100000e+001  0.000000e+000
      vertex  2.841421e+001  8.585787e+000  0.000000e+000
      vertex  2.900000e+001  1.000000e+001  0.000000e+000
    endloop
  endfacet
  facet normal  0.000000e+000  0.000000e+000 -1.000000e+000
    outer loop
      vertex  3.500000e+001  2.100000e+001  0.000000e+000
      vertex  3.500000e+001 -2.100000e+001  0.000000e+000
      vertex  2.900000e+001  1.000000e+001  0.000000e+000
    endloop
  endfacet
  facet normal  0.000000e+000  0.000000e+000 -1.000000e+000
    outer loop
      vertex  3.500000e+001  2.100000e+001  0.000000e+000
      vertex  2.900000e+001  1.000000e+001  0.000000e+000
      vertex  2.841421e+001  1.141421e+001  0.000000e+000
    endloop
  endfacet
  facet normal  0.000000e+000  0.000000e+000 -1.000000e+000
    outer loop
      vertex  3.500000e+001  2.100000e+001  0.000000e+000
      vertex  2.841421e+001  1.141421e+001  0.000000e+000
      vertex  2.700000e+001  1.200000e+001  0.000000e+000
    endloop
  endfacet
  facet normal  0.000000e+000  0.000000e+000 -1.000000e+000
    outer loop
      vertex  3.500000e+001  2.100000e+001  0.000000e+000
      vertex  2.700000e+001  1.200000e+001  0.000000e+000
      vertex  3.400000e+001  2.200000e+001  0.000000e+000
    endloop
  endfacet
  facet normal  0.000000e+000  0.000000e+000 -9.999999e-001
    outer loop
      vertex  3.500000e+001  2.100000e+001  0.000000e+000
      vertex  3.400000e+001  2.200000e+001  0.000000e+000
      vertex  3.470711e+001  2.170711e+001  0.000000e+000
    endloop
  endfacet
  facet normal  0.000000e+000  0.000000e+000 -9.999999e-001
    outer loop
      vertex  3.470711e+001 -2.170711e+001  0.000000e+000
      vertex  3.400000e+001 -2.200000e+001  0.000000e+000
      vertex  3.500000e+001 -2.100000e+001  0.000000e+000
    endloop
  endfacet
  facet normal  -0.000000e+000  0.000000e+000 -1.000000e+000
    outer loop
      vertex  3.500000e+001 -2.100000e+001  0.000000e+000
      vertex  3.400000e+001 -2.200000e+001  0.000000e+000
      vertex  2.700000e+001 -1.200000e+001  0.000000e+000
    endloop
  endfacet
  facet normal  0.000000e+000  0.000000e+000 -1.000000e+000
    outer loop
      vertex  3.400000e+001 -2.200000e+001  0.000000e+000
      vertex -3.500000e+001 -2.200000e+001  0.000000e+000
      vertex  2.700000e+001 -1.200000e+001  0.000000e+000
    endloop
  endfacet
  facet normal  -0.000000e+000  0.000000e+000 -1.000000e+000
    outer loop
      vertex  2.700000e+001 -1.200000e+001  0.000000e+000
      vertex -3.500000e+001 -2.200000e+001  0.000000e+000
      vertex -3.100000e+001 -1.200000e+001  0.000000e+000
    endloop
  endfacet
  facet normal  0.000000e+000  0.000000e+000 -1.000000e+000
    outer loop
      vertex  2.700000e+001  8.000000e+000  0.000000e+000
      vertex -2.958579e+001  8.585787e+000  0.000000e+000
      vertex  2.558579e+001  8.585787e+000  0.000000e+000
    endloop
  endfacet
  facet normal  0.000000e+000  0.000000e+000 -9.999999e-001
    outer loop
      vertex  2.558579e+001  8.585787e+000  0.000000e+000
      vertex -2.958579e+001  8.585787e+000  0.000000e+000
      vertex -2.900000e+001  1.000000e+001  0.000000e+000
    endloop
  endfacet
  facet normal  0.000000e+000  0.000000e+000 -1.000000e+000
    outer loop
      vertex  2.558579e+001  8.585787e+000  0.000000e+000
      vertex -2.900000e+001  1.000000e+001  0.000000e+000
      vertex  2.500000e+001  1.000000e+001  0.000000e+000
    endloop
  endfacet
  facet normal  0.000000e+000  0.000000e+000 -1.000000e+000
    outer loop
      vertex  2.500000e+001  1.000000e+001  0.000000e+000
      vertex -2.900000e+001  1.000000e+001  0.000000e+000
      vertex -2.958579e+001  1.141421e+001  0.000000e+000
    endloop
  endfacet
  facet normal  0.000000e+000  0.000000e+000 -9.999999e-001
    outer loop
      vertex  2.500000e+001  1.000000e+001  0.000000e+000
      vertex -2.958579e+001  1.141421e+001  0.000000e+000
      vertex  2.558579e+001  1.141421e+001  0.000000e+000
    endloop
  endfacet
  facet normal  0.000000e+000  0.000000e+000 -1.000000e+000
    outer loop
      vertex  2.558579e+001  1.141421e+001  0.000000e+000
      vertex -2.958579e+001  1.141421e+001  0.000000e+000
      vertex -3.100000e+001  1.200000e+001  0.000000e+000
    endloop
  endfacet
  facet normal  0.000000e+000  0.000000e+000 -1.000000e+000
    outer loop
      vertex  2.558579e+001  1.141421e+001  0.000000e+000
      vertex -3.100000e+001  1.200000e+001  0.000000e+000
      vertex  2.700000e+001  1.200000e+001  0.000000e+000
    endloop
  endfacet
  facet normal  0.000000e+000  0.000000e+000 -1.000000e+000
    outer loop
      vertex -2.958579e+001  8.585787e+000  0.000000e+000
      vertex  2.700000e+001  8.000000e+000  0.000000e+000
      vertex -3.100000e+001  8.000000e+000  0.000000e+000
    endloop
  endfacet
  facet normal  0.000000e+000  0.000000e+000 -1.000000e+000
    outer loop
      vertex -3.100000e+001  8.000000e+000  0.000000e+000
      vertex  2.700000e+001  8.000000e+000  0.000000e+000
      vertex  2.700000e+001 -8.000000e+000  0.000000e+000
    endloop
  endfacet
  facet normal  0.000000e+000  0.000000e+000 -1.000000e+000
    outer loop
      vertex -3.100000e+001  8.000000e+000  0.000000e+000
      vertex  2.700000e+001 -8.000000e+000  0.000000e+000
      vertex -3.100000e+001 -8.000000e+000  0.000000e+000
    endloop
  endfacet
  facet normal  0.000000e+000  0.000000e+000 -1.000000e+000
    outer loop
      vertex -3.100000e+001 -8.000000e+000  0.000000e+000
      vertex  2.700000e+001 -8.000000e+000  0.000000e+000
      vertex  2.558579e+001 -8.585787e+000  0.000000e+000
    endloop
  endfacet
  facet normal  0.000000e+000  0.000000e+000 -1.000000e+000
    outer loop
      vertex -3.100000e+001 -8.000000e+000  0.000000e+000
      vertex  2.558579e+001 -8.585787e+000  0.000000e+000
      vertex -2.958579e+001 -8.585787e+000  0.000000e+000
    endloop
  endfacet
  facet normal  0.000000e+000  0.000000e+000 -9.999999e-001
    outer loop
      vertex -2.958579e+001 -8.585787e+000  0.000000e+000
      vertex  2.558579e+001 -8.585787e+000  0.000000e+000
      vertex  2.500000e+001 -1.000000e+001  0.000000e+000
    endloop
  endfacet
  facet normal  0.000000e+000  0.000000e+000 -1.000000e+000
    outer loop
      vertex -2.958579e+001 -8.585787e+000  0.000000e+000
      vertex  2.500000e+001 -1.000000e+001  0.000000e+000
      vertex -2.900000e+001 -1.000000e+001  0.000000e+000
    endloop
  endfacet
  facet normal  0.000000e+000  0.000000e+000 -1.000000e+000
    outer loop
      vertex -2.900000e+001 -1.000000e+001  0.000000e+000
      vertex  2.500000e+001 -1.000000e+001  0.000000e+000
      vertex  2.558579e+001 -1.141421e+001  0.000000e+000
    endloop
  endfacet
  facet normal  0.000000e+000  0.000000e+000 -9.999999e-001
    outer loop
      vertex -2.900000e+001 -1.000000e+001  0.000000e+000
      vertex  2.558579e+001 -1.141421e+001  0.000000e+000
      vertex -2.958579e+001 -1.141421e+001  0.000000e+000
    endloop
  endfacet
  facet normal  0.000000e+000  0.000000e+000 -1.000000e+000
    outer loop
      vertex -2.958579e+001 -1.141421e+001  0.000000e+000
      vertex  2.558579e+001 -1.141421e+001  0.000000e+000
      vertex  2.700000e+001 -1.200000e+001  0.000000e+000
    endloop
  endfacet
  facet normal  0.000000e+000  0.000000e+000 -1.000000e+000
    outer loop
      vertex -2.958579e+001 -1.141421e+001  0.000000e+000
      vertex  2.700000e+001 -1.200000e+001  0.000000e+000
      vertex -3.100000e+001 -1.200000e+001  0.000000e+000
    endloop
  endfacet
  facet normal  0.000000e+000  1.000000e+000  -0.000000e+000
    outer loop
      vertex  3.400000e+001  2.200000e+001  1.900000e+001
      vertex  3.400000e+001  2.200000e+001  0.000000e+000
      vertex -3.500000e+001  2.200000e+001  1.900000e+001
    endloop
  endfacet
  facet normal  0.000000e+000  1.000000e+000  0.000000e+000
    outer loop
      vertex -3.500000e+001  2.200000e+001  1.900000e+001
      vertex  3.400000e+001  2.200000e+001  0.000000e+000
      vertex -3.500000e+001  2.200000e+001  0.000000e+000
    endloop
  endfacet
  facet normal  3.826822e-001  9.238800e-001  0.000000e+000
    outer loop
      vertex  3.400000e+001  2.200000e+001  0.000000e+000
      vertex  3.400000e+001  2.200000e+001  1.900000e+001
      vertex  3.470711e+001  2.170711e+001  0.000000e+000
    endloop
  endfacet
  facet normal  3.826822e-001  9.238800e-001  -0.000000e+000
    outer loop
      vertex  3.470711e+001  2.170711e+001  0.000000e+000
      vertex  3.400000e+001  2.200000e+001  1.900000e+001
      vertex  3.470711e+001  2.170711e+001  1.900000e+001
    endloop
  endfacet
  facet normal  9.238800e-001  3.826822e-001  0.000000e+000
    outer loop
      vertex  3.470711e+001  2.170711e+001  0.000000e+000
      vertex  3.470711e+001  2.170711e+001  1.900000e+001
      vertex  3.500000e+001  2.100000e+001  0.000000e+000
    endloop
  endfacet
  facet normal  9.238800e-001  3.826822e-001  -0.000000e+000
    outer loop
      vertex  3.500000e+001  2.100000e+001  0.000000e+000
      vertex  3.470711e+001  2.170711e+001  1.900000e+001
      vertex  3.500000e+001  2.100000e+001  1.900000e+001
    endloop
  endfacet
  facet normal  0.000000e+000  3.826823e-001  9.238801e-001
    outer loop
      vertex -3.500000e+001  2.100000e+001  2.000000e+001
      vertex  3.400000e+001  2.100000e+001  2.000000e+001
      vertex -3.500000e+001  2.170711e+001  1.970711e+001
    endloop
  endfacet
  facet normal  -0.000000e+000  3.826823e-001  9.238801e-001
    outer loop
      vertex -3.500000e+001  2.170711e+001  1.970711e+001
      vertex  3.400000e+001  2.100000e+001  2.000000e+001
      vertex  3.400000e+001  2.170711e+001  1.970711e+001
    endloop
  endfacet
  facet normal  0.000000e+000  9.238801e-001  3.826823e-001
    outer loop
      vertex -3.500000e+001  2.170711e+001  1.970711e+001
      vertex  3.400000e+001  2.170711e+001  1.970711e+001
      vertex -3.500000e+001  2.200000e+001  1.900000e+001
    endloop
  endfacet
  facet normal  -0.000000e+000  9.238801e-001  3.826823e-001
    outer loop
      vertex -3.500000e+001  2.200000e+001  1.900000e+001
      vertex  3.400000e+001  2.170711e+001  1.970711e+001
      vertex  3.400000e+001  2.200000e+001  1.900000e+001
    endloop
  endfacet
  facet normal  3.779633e-001  9.124874e-001  1.565581e-001
    outer loop
      vertex  3.400000e+001  2.200000e+001  1.900000e+001
      vertex  3.450000e+001  2.170711e+001  1.950000e+001
      vertex  3.470711e+001  2.170711e+001  1.900000e+001
    endloop
  endfacet
  facet normal  1.565581e-001  9.124874e-001  3.779633e-001
    outer loop
      vertex  3.400000e+001  2.200000e+001  1.900000e+001
      vertex  3.400000e+001  2.170711e+001  1.970711e+001
      vertex  3.450000e+001  2.170711e+001  1.950000e+001
    endloop
  endfacet
  facet normal  3.574080e-001  3.574054e-001  8.628561e-001
    outer loop
      vertex  3.400000e+001  2.170711e+001  1.970711e+001
      vertex  3.400000e+001  2.100000e+001  2.000000e+001
      vertex  3.450000e+001  2.170711e+001  1.950000e+001
    endloop
  endfacet
  facet normal  3.574056e-001  3.574074e-001  8.628565e-001
    outer loop
      vertex  3.450000e+001  2.170711e+001  1.950000e+001
      vertex  3.400000e+001  2.100000e+001  2.000000e+001
      vertex  3.470711e+001  2.100000e+001  1.970711e+001
    endloop
  endfacet
  facet normal  8.628554e-001  3.574077e-001  3.574077e-001
    outer loop
      vertex  3.450000e+001  2.170711e+001  1.950000e+001
      vertex  3.470711e+001  2.100000e+001  1.970711e+001
      vertex  3.470711e+001  2.170711e+001  1.900000e+001
    endloop
  endfacet
  facet normal  8.628570e-001  3.574058e-001  3.574058e-001
    outer loop
      vertex  3.470711e+001  2.170711e+001  1.900000e+001
      vertex  3.470711e+001  2.100000e+001  1.970711e+001
      vertex  3.500000e+001  2.100000e+001  1.900000e+001
    endloop
  endfacet
  facet normal  -0.000000e+000  3.826822e-001  9.238800e-001
    outer loop
      vertex -3.500000e+001 -1.729289e+001  1.970711e+001
      vertex -3.500000e+001 -1.800000e+001  2.000000e+001
      vertex  3.100000e+001 -1.800000e+001  2.000000e+001
    endloop
  endfacet
  facet normal -2.629312e-003  1.632398e-001  9.865829e-001
    outer loop
      vertex -3.500000e+001 -1.729289e+001  1.970711e+001
      vertex  3.100000e+001 -1.800000e+001  2.000000e+001
      vertex  3.067300e+001 -1.767300e+001  1.994502e+001
    endloop
  endfacet
  facet normal  1.372551e-004  5.474918e-001  8.368109e-001
    outer loop
      vertex -3.500000e+001 -1.729289e+001  1.970711e+001
      vertex  3.067300e+001 -1.767300e+001  1.994502e+001
      vertex  3.026520e+001 -1.726520e+001  1.967829e+001
    endloop
  endfacet
  facet normal -9.672267e-005  8.214867e-001  5.702276e-001
    outer loop
      vertex -3.500000e+001 -1.729289e+001  1.970711e+001
      vertex  3.026520e+001 -1.726520e+001  1.967829e+001
      vertex  3.010754e+001 -1.710754e+001  1.945113e+001
    endloop
  endfacet
  facet normal -1.855619e-003  9.726414e-001  2.323043e-001
    outer loop
      vertex -3.500000e+001 -1.729289e+001  1.970711e+001
      vertex  3.010754e+001 -1.710754e+001  1.945113e+001
      vertex  3.000000e+001 -1.700000e+001  1.900000e+001
    endloop
  endfacet
  facet normal  0.000000e+000  9.238800e-001  3.826822e-001
    outer loop
      vertex -3.500000e+001 -1.729289e+001  1.970711e+001
      vertex  3.000000e+001 -1.700000e+001  1.900000e+001
      vertex -3.500000e+001 -1.700000e+001  1.900000e+001
    endloop
  endfacet
  facet normal  0.000000e+000 -1.000000e+000  0.000000e+000
    outer loop
      vertex -3.500000e+001  1.700000e+001  1.900000e+001
      vertex -3.500000e+001  1.700000e+001  5.000000e+000
      vertex  3.000000e+001  1.700000e+001  1.900000e+001
    endloop
  endfacet
  facet normal  0.000000e+000 -1.000000e+000  -0.000000e+000
    outer loop
      vertex  3.000000e+001  1.700000e+001  1.900000e+001
      vertex -3.500000e+001  1.700000e+001  5.000000e+000
      vertex  3.000000e+001  1.700000e+001  5.000000e+000
    endloop
  endfacet
  facet normal -1.000000e+000  -0.000000e+000  0.000000e+000
    outer loop
      vertex  3.000000e+001 -1.700000e+001  1.900000e+001
      vertex  3.000000e+001  1.700000e+001  1.900000e+001
      vertex  3.000000e+001 -1.700000e+001  5.000000e+000
    endloop
  endfacet
  facet normal -1.000000e+000  0.000000e+000  0.000000e+000
    outer loop
      vertex  3.000000e+001 -1.700000e+001  5.000000e+000
      vertex  3.000000e+001  1.700000e+001  1.900000e+001
      vertex  3.000000e+001  1.700000e+001  5.000000e+000
    endloop
  endfacet
  facet normal  0.000000e+000  1.000000e+000  -0.000000e+000
    outer loop
      vertex  3.000000e+001 -1.700000e+001  1.900000e+001
      vertex  3.000000e+001 -1.700000e+001  5.000000e+000
      vertex -3.500000e+001 -1.700000e+001  1.900000e+001
    endloop
  endfacet
  facet normal  0.000000e+000  1.000000e+000  0.000000e+000
    outer loop
      vertex -3.500000e+001 -1.700000e+001  1.900000e+001
      vertex  3.000000e+001 -1.700000e+001  5.000000e+000
      vertex -3.500000e+001 -1.700000e+001  5.000000e+000
    endloop
  endfacet
  facet normal  0.000000e+000 -9.238800e-001  3.826822e-001
    outer loop
      vertex -3.500000e+001  1.700000e+001  1.900000e+001
      vertex  3.000000e+001  1.700000e+001  1.900000e+001
      vertex -3.500000e+001  1.729289e+001  1.970711e+001
    endloop
  endfacet
  facet normal -1.960408e-003 -9.746968e-001  2.235230e-001
    outer loop
      vertex -3.500000e+001  1.729289e+001  1.970711e+001
      vertex  3.000000e+001  1.700000e+001  1.900000e+001
      vertex  3.009954e+001  1.709954e+001  1.943495e+001
    endloop
  endfacet
  facet normal  4.038389e-005 -8.106349e-001  5.855519e-001
    outer loop
      vertex -3.500000e+001  1.729289e+001  1.970711e+001
      vertex  3.009954e+001  1.709954e+001  1.943495e+001
      vertex  3.030415e+001  1.730415e+001  1.971819e+001
    endloop
  endfacet
  facet normal -9.076671e-005 -3.826822e-001  9.238800e-001
    outer loop
      vertex -3.500000e+001  1.729289e+001  1.970711e+001
      vertex  3.030415e+001  1.730415e+001  1.971819e+001
      vertex -3.500000e+001  1.800000e+001  2.000000e+001
    endloop
  endfacet
  facet normal -8.946751e-004 -4.463696e-001  8.948483e-001
    outer loop
      vertex -3.500000e+001  1.800000e+001  2.000000e+001
      vertex  3.030415e+001  1.730415e+001  1.971819e+001
      vertex  3.084324e+001  1.784324e+001  1.998764e+001
    endloop
  endfacet
  facet normal  0.000000e+000 -7.862572e-002  9.969043e-001
    outer loop
      vertex -3.500000e+001  1.800000e+001  2.000000e+001
      vertex  3.084324e+001  1.784324e+001  1.998764e+001
      vertex  3.100000e+001  1.800000e+001  2.000000e+001
    endloop
  endfacet
  facet normal -1.657980e-001  0.000000e+000  9.861598e-001
    outer loop
      vertex  3.100000e+001 -1.800000e+001  2.000000e+001
      vertex  3.100000e+001  1.800000e+001  2.000000e+001
      vertex  3.067300e+001 -1.767300e+001  1.994502e+001
    endloop
  endfacet
  facet normal -7.780751e-002 -8.232390e-004  9.969680e-001
    outer loop
      vertex  3.067300e+001 -1.767300e+001  1.994502e+001
      vertex  3.100000e+001  1.800000e+001  2.000000e+001
      vertex  3.084324e+001  1.784324e+001  1.998764e+001
    endloop
  endfacet
  facet normal -5.462663e-001  1.613510e-003  8.376101e-001
    outer loop
      vertex  3.067300e+001 -1.767300e+001  1.994502e+001
      vertex  3.084324e+001  1.784324e+001  1.998764e+001
      vertex  3.026520e+001 -1.726520e+001  1.967829e+001
    endloop
  endfacet
  facet normal -4.466659e-001 -5.293933e-004  8.947007e-001
    outer loop
      vertex  3.026520e+001 -1.726520e+001  1.967829e+001
      vertex  3.084324e+001  1.784324e+001  1.998764e+001
      vertex  3.030415e+001  1.730415e+001  1.971819e+001
    endloop
  endfacet
  facet normal -8.214280e-001  2.672667e-004  5.703122e-001
    outer loop
      vertex  3.026520e+001 -1.726520e+001  1.967829e+001
      vertex  3.030415e+001  1.730415e+001  1.971819e+001
      vertex  3.010754e+001 -1.710754e+001  1.945113e+001
    endloop
  endfacet
  facet normal -8.106433e-001  8.746877e-005  5.855403e-001
    outer loop
      vertex  3.010754e+001 -1.710754e+001  1.945113e+001
      vertex  3.030415e+001  1.730415e+001  1.971819e+001
      vertex  3.009954e+001  1.709954e+001  1.943495e+001
    endloop
  endfacet
  facet normal -9.727494e-001 -1.177428e-004  2.318596e-001
    outer loop
      vertex  3.010754e+001 -1.710754e+001  1.945113e+001
      vertex  3.009954e+001  1.709954e+001  1.943495e+001
      vertex  3.000000e+001 -1.700000e+001  1.900000e+001
    endloop
  endfacet
  facet normal -9.747962e-001  0.000000e+000  2.230971e-001
    outer loop
      vertex  3.000000e+001 -1.700000e+001  1.900000e+001
      vertex  3.009954e+001  1.709954e+001  1.943495e+001
      vertex  3.000000e+001  1.700000e+001  1.900000e+001
    endloop
  endfacet
  facet normal  0.000000e+000 -9.238801e-001  3.826823e-001
    outer loop
      vertex -3.500000e+001 -2.200000e+001  1.900000e+001
      vertex  3.400000e+001 -2.200000e+001  1.900000e+001
      vertex -3.500000e+001 -2.170711e+001  1.970711e+001
    endloop
  endfacet
  facet normal  0.000000e+000 -9.238801e-001  3.826823e-001
    outer loop
      vertex -3.500000e+001 -2.170711e+001  1.970711e+001
      vertex  3.400000e+001 -2.200000e+001  1.900000e+001
      vertex  3.400000e+001 -2.170711e+001  1.970711e+001
    endloop
  endfacet
  facet normal  0.000000e+000 -3.826823e-001  9.238801e-001
    outer loop
      vertex -3.500000e+001 -2.170711e+001  1.970711e+001
      vertex  3.400000e+001 -2.170711e+001  1.970711e+001
      vertex -3.500000e+001 -2.100000e+001  2.000000e+001
    endloop
  endfacet
  facet normal  0.000000e+000 -3.826823e-001  9.238801e-001
    outer loop
      vertex -3.500000e+001 -2.100000e+001  2.000000e+001
      vertex  3.400000e+001 -2.170711e+001  1.970711e+001
      vertex  3.400000e+001 -2.100000e+001  2.000000e+001
    endloop
  endfacet
  facet normal  0.000000e+000 -1.000000e+000  0.000000e+000
    outer loop
      vertex  3.400000e+001 -2.200000e+001  1.900000e+001
      vertex -3.500000e+001 -2.200000e+001  1.900000e+001
      vertex  3.400000e+001 -2.200000e+001  0.000000e+000
    endloop
  endfacet
  facet normal  0.000000e+000 -1.000000e+000  0.000000e+000
    outer loop
      vertex  3.400000e+001 -2.200000e+001  0.000000e+000
      vertex -3.500000e+001 -2.200000e+001  1.900000e+001
      vertex -3.500000e+001 -2.200000e+001  0.000000e+000
    endloop
  endfacet
  facet normal  9.238800e-001 -3.826822e-001  0.000000e+000
    outer loop
      vertex  3.500000e+001 -2.100000e+001  0.000000e+000
      vertex  3.500000e+001 -2.100000e+001  1.900000e+001
      vertex  3.470711e+001 -2.170711e+001  0.000000e+000
    endloop
  endfacet
  facet normal  9.238800e-001 -3.826822e-001  0.000000e+000
    outer loop
      vertex  3.470711e+001 -2.170711e+001  0.000000e+000
      vertex  3.500000e+001 -2.100000e+001  1.900000e+001
      vertex  3.470711e+001 -2.170711e+001  1.900000e+001
    endloop
  endfacet
  facet normal  3.826822e-001 -9.238800e-001  0.000000e+000
    outer loop
      vertex  3.470711e+001 -2.170711e+001  0.000000e+000
      vertex  3.470711e+001 -2.170711e+001  1.900000e+001
      vertex  3.400000e+001 -2.200000e+001  0.000000e+000
    endloop
  endfacet
  facet normal  3.826822e-001 -9.238800e-001  0.000000e+000
    outer loop
      vertex  3.400000e+001 -2.200000e+001  0.000000e+000
      vertex  3.470711e+001 -2.170711e+001  1.900000e+001
      vertex  3.400000e+001 -2.200000e+001  1.900000e+001
    endloop
  endfacet
  facet normal  9.124874e-001 -3.779633e-001  1.565581e-001
    outer loop
      vertex  3.500000e+001 -2.100000e+001  1.900000e+001
      vertex  3.470711e+001 -2.150000e+001  1.950000e+001
      vertex  3.470711e+001 -2.170711e+001  1.900000e+001
    endloop
  endfacet
  facet normal  9.124874e-001 -1.565581e-001  3.779633e-001
    outer loop
      vertex  3.500000e+001 -2.100000e+001  1.900000e+001
      vertex  3.470711e+001 -2.100000e+001  1.970711e+001
      vertex  3.470711e+001 -2.150000e+001  1.950000e+001
    endloop
  endfacet
  facet normal  3.574054e-001 -3.574080e-001  8.628561e-001
    outer loop
      vertex  3.470711e+001 -2.100000e+001  1.970711e+001
      vertex  3.400000e+001 -2.100000e+001  2.000000e+001
      vertex  3.470711e+001 -2.150000e+001  1.950000e+001
    endloop
  endfacet
  facet normal  3.574074e-001 -3.574056e-001  8.628565e-001
    outer loop
      vertex  3.470711e+001 -2.150000e+001  1.950000e+001
      vertex  3.400000e+001 -2.100000e+001  2.000000e+001
      vertex  3.400000e+001 -2.170711e+001  1.970711e+001
    endloop
  endfacet
  facet normal  3.574077e-001 -8.628554e-001  3.574077e-001
    outer loop
      vertex  3.470711e+001 -2.150000e+001  1.950000e+001
      vertex  3.400000e+001 -2.170711e+001  1.970711e+001
      vertex  3.470711e+001 -2.170711e+001  1.900000e+001
    endloop
  endfacet
  facet normal  3.574058e-001 -8.628570e-001  3.574058e-001
    outer loop
      vertex  3.470711e+001 -2.170711e+001  1.900000e+001
      vertex  3.400000e+001 -2.170711e+001  1.970711e+001
      vertex  3.400000e+001 -2.200000e+001  1.900000e+001
    endloop
  endfacet
  facet normal  0.000000e+000  -0.000000e+000  9.999999e-001
    outer loop
      vertex -3.300000e+001 -1.000000e+001  5.000000e+000
      vertex -3.241422e+001 -8.585787e+000  5.000000e+000
      vertex -3.100000e+001  8.000000e+000  5.000000e+000
    endloop
  endfacet
  facet normal  0.000000e+000  -0.000000e+000  9.999999e-001
    outer loop
      vertex -3.241422e+001 -8.585787e+000  5.000000e+000
      vertex -3.100000e+001 -8.000000e+000  5.000000e+000
      vertex -3.100000e+001  8.000000e+000  5.000000e+000
    endloop
  endfacet
  facet normal  0.000000e+000  0.000000e+000  1.000000e+000
    outer loop
      vertex  2.900000e+001 -1.000000e+001  5.000000e+000
      vertex  2.700000e+001  8.000000e+000  5.000000e+000
      vertex  2.841421e+001 -8.585787e+000  5.000000e+000
    endloop
  endfacet
  facet normal  0.000000e+000  0.000000e+000  9.999999e-001
    outer loop
      vertex  2.841421e+001 -8.585787e+000  5.000000e+000
      vertex  2.700000e+001  8.000000e+000  5.000000e+000
      vertex  2.700000e+001 -8.000000e+000  5.000000e+000
    endloop
  endfacet
  facet normal  0.000000e+000  0.000000e+000  1.000000e+000
    outer loop
      vertex  3.000000e+001 -1.700000e+001  5.000000e+000
      vertex  2.900000e+001  1.000000e+001  5.000000e+000
      vertex  2.841421e+001  8.585787e+000  5.000000e+000
    endloop
  endfacet
  facet normal  0.000000e+000  0.000000e+000  1.000000e+000
    outer loop
      vertex  3.000000e+001 -1.700000e+001  5.000000e+000
      vertex  2.841421e+001  8.585787e+000  5.000000e+000
      vertex  2.700000e+001  8.000000e+000  5.000000e+000
    endloop
  endfacet
  facet normal  0.000000e+000  0.000000e+000  1.000000e+000
    outer loop
      vertex  3.000000e+001 -1.700000e+001  5.000000e+000
      vertex  2.700000e+001  8.000000e+000  5.000000e+000
      vertex  2.900000e+001 -1.000000e+001  5.000000e+000
    endloop
  endfacet
  facet normal  0.000000e+000  0.000000e+000  1.000000e+000
    outer loop
      vertex  3.000000e+001 -1.700000e+001  5.000000e+000
      vertex  2.900000e+001 -1.000000e+001  5.000000e+000
      vertex  2.841421e+001 -1.141421e+001  5.000000e+000
    endloop
  endfacet
  facet normal  0.000000e+000  0.000000e+000  1.000000e+000
    outer loop
      vertex  3.000000e+001 -1.700000e+001  5.000000e+000
      vertex  2.841421e+001 -1.141421e+001  5.000000e+000
      vertex  2.700000e+001 -1.200000e+001  5.000000e+000
    endloop
  endfacet
  facet normal  0.000000e+000  0.000000e+000  1.000000e+000
    outer loop
      vertex  3.000000e+001 -1.700000e+001  5.000000e+000
      vertex  2.700000e+001 -1.200000e+001  5.000000e+000
      vertex -3.100000e+001 -1.200000e+001  5.000000e+000
    endloop
  endfacet
  facet normal  0.000000e+000  0.000000e+000  1.000000e+000
    outer loop
      vertex  3.000000e+001 -1.700000e+001  5.000000e+000
      vertex -3.100000e+001 -1.200000e+001  5.000000e+000
      vertex -3.500000e+001 -1.700000e+001  5.000000e+000
    endloop
  endfacet
  facet normal  0.000000e+000  0.000000e+000  1.000000e+000
    outer loop
      vertex -3.500000e+001 -1.700000e+001  5.000000e+000
      vertex -3.100000e+001 -1.200000e+001  5.000000e+000
      vertex -3.241422e+001 -1.141421e+001  5.000000e+000
    endloop
  endfacet
  facet normal  0.000000e+000  0.000000e+000  1.000000e+000
    outer loop
      vertex -3.500000e+001 -1.700000e+001  5.000000e+000
      vertex -3.241422e+001 -1.141421e+001  5.000000e+000
      vertex -3.300000e+001 -1.000000e+001  5.000000e+000
    endloop
  endfacet
  facet normal  0.000000e+000  -0.000000e+000  1.000000e+000
    outer loop
      vertex -3.500000e+001 -1.700000e+001  5.000000e+000
      vertex -3.300000e+001 -1.000000e+001  5.000000e+000
      vertex -3.100000e+001  8.000000e+000  5.000000e+000
    endloop
  endfacet
  facet normal  0.000000e+000  0.000000e+000  1.000000e+000
    outer loop
      vertex -3.500000e+001 -1.700000e+001  5.000000e+000
      vertex -3.100000e+001  8.000000e+000  5.000000e+000
      vertex -3.241422e+001  8.585787e+000  5.000000e+000
    endloop
  endfacet
  facet normal  0.000000e+000  0.000000e+000  1.000000e+000
    outer loop
      vertex -3.500000e+001 -1.700000e+001  5.000000e+000
      vertex -3.241422e+001  8.585787e+000  5.000000e+000
      vertex -3.300000e+001  1.000000e+001  5.000000e+000
    endloop
  endfacet
  facet normal  0.000000e+000  0.000000e+000  1.000000e+000
    outer loop
      vertex -3.500000e+001 -1.700000e+001  5.000000e+000
      vertex -3.300000e+001  1.000000e+001  5.000000e+000
      vertex -3.500000e+001  1.700000e+001  5.000000e+000
    endloop
  endfacet
  facet normal  0.000000e+000  -0.000000e+000  1.000000e+000
    outer loop
      vertex -3.500000e+001  1.700000e+001  5.000000e+000
      vertex -3.300000e+001  1.000000e+001  5.000000e+000
      vertex -3.241422e+001  1.141421e+001  5.000000e+000
    endloop
  endfacet
  facet normal  0.000000e+000  -0.000000e+000  1.000000e+000
    outer loop
      vertex -3.500000e+001  1.700000e+001  5.000000e+000
      vertex -3.241422e+001  1.141421e+001  5.000000e+000
      vertex -3.100000e+001  1.200000e+001  5.000000e+000
    endloop
  endfacet
  facet normal  0.000000e+000  -0.000000e+000  1.000000e+000
    outer loop
      vertex -3.500000e+001  1.700000e+001  5.000000e+000
      vertex -3.100000e+001  1.200000e+001  5.000000e+000
      vertex  2.700000e+001  1.200000e+001  5.000000e+000
    endloop
  endfacet
  facet normal  0.000000e+000  -0.000000e+000  1.000000e+000
    outer loop
      vertex -3.500000e+001  1.700000e+001  5.000000e+000
      vertex  2.700000e+001  1.200000e+001  5.000000e+000
      vertex  3.000000e+001  1.700000e+001  5.000000e+000
    endloop
  endfacet
  facet normal  -0.000000e+000  0.000000e+000  1.000000e+000
    outer loop
      vertex  3.000000e+001  1.700000e+001  5.000000e+000
      vertex  2.700000e+001  1.200000e+001  5.000000e+000
      vertex  2.841421e+001  1.141421e+001  5.000000e+000
    endloop
  endfacet
  facet normal  -0.000000e+000  0.000000e+000  1.000000e+000
    outer loop
      vertex  3.000000e+001  1.700000e+001  5.000000e+000
      vertex  2.841421e+001  1.141421e+001  5.000000e+000
      vertex  2.900000e+001  1.000000e+001  5.000000e+000
    endloop
  endfacet
  facet normal  -0.000000e+000  0.000000e+000  1.000000e+000
    outer loop
      vertex  3.000000e+001  1.700000e+001  5.000000e+000
      vertex  2.900000e+001  1.000000e+001  5.000000e+000
      vertex  3.000000e+001 -1.700000e+001  5.000000e+000
    endloop
  endfacet
  facet normal  -0.000000e+000  0.000000e+000  1.000000e+000
    outer loop
      vertex  2.700000e+001  1.200000e+001  5.000000e+000
      vertex -3.100000e+001  1.200000e+001  5.000000e+000
      vertex  2.558579e+001  1.141421e+001  5.000000e+000
    endloop
  endfacet
  facet normal  0.000000e+000  0.000000e+000  1.000000e+000
    outer loop
      vertex  2.558579e+001  1.141421e+001  5.000000e+000
      vertex -3.100000e+001  1.200000e+001  5.000000e+000
      vertex -2.958579e+001  1.141421e+001  5.000000e+000
    endloop
  endfacet
  facet normal  -0.000000e+000  0.000000e+000  9.999999e-001
    outer loop
      vertex  2.558579e+001  1.141421e+001  5.000000e+000
      vertex -2.958579e+001  1.141421e+001  5.000000e+000
      vertex  2.500000e+001  1.000000e+001  5.000000e+000
    endloop
  endfacet
  facet normal  0.000000e+000  0.000000e+000  1.000000e+000
    outer loop
      vertex  2.500000e+001  1.000000e+001  5.000000e+000
      vertex -2.958579e+001  1.141421e+001  5.000000e+000
      vertex -2.900000e+001  1.000000e+001  5.000000e+000
    endloop
  endfacet
  facet normal  -0.000000e+000  0.000000e+000  1.000000e+000
    outer loop
      vertex  2.500000e+001  1.000000e+001  5.000000e+000
      vertex -2.900000e+001  1.000000e+001  5.000000e+000
      vertex  2.558579e+001  8.585787e+000  5.000000e+000
    endloop
  endfacet
  facet normal  0.000000e+000  0.000000e+000  9.999999e-001
    outer loop
      vertex  2.558579e+001  8.585787e+000  5.000000e+000
      vertex -2.900000e+001  1.000000e+001  5.000000e+000
      vertex -2.958579e+001  8.585787e+000  5.000000e+000
    endloop
  endfacet
  facet normal  -0.000000e+000  0.000000e+000  1.000000e+000
    outer loop
      vertex  2.558579e+001  8.585787e+000  5.000000e+000
      vertex -2.958579e+001  8.585787e+000  5.000000e+000
      vertex  2.700000e+001  8.000000e+000  5.000000e+000
    endloop
  endfacet
  facet normal  0.000000e+000  0.000000e+000  1.000000e+000
    outer loop
      vertex  2.700000e+001  8.000000e+000  5.000000e+000
      vertex -2.958579e+001  8.585787e+000  5.000000e+000
      vertex -3.100000e+001  8.000000e+000  5.000000e+000
    endloop
  endfacet
  facet normal  -0.000000e+000  0.000000e+000  1.000000e+000
    outer loop
      vertex  2.700000e+001  8.000000e+000  5.000000e+000
      vertex -3.100000e+001  8.000000e+000  5.000000e+000
      vertex  2.700000e+001 -8.000000e+000  5.000000e+000
    endloop
  endfacet
  facet normal  0.000000e+000  0.000000e+000  1.000000e+000
    outer loop
      vertex  2.700000e+001 -8.000000e+000  5.000000e+000
      vertex -3.100000e+001  8.000000e+000  5.000000e+000
      vertex -3.100000e+001 -8.000000e+000  5.000000e+000
    endloop
  endfacet
  facet normal  -0.000000e+000  0.000000e+000  1.000000e+000
    outer loop
      vertex  2.700000e+001 -8.000000e+000  5.000000e+000
      vertex -3.100000e+001 -8.000000e+000  5.000000e+000
      vertex  2.558579e+001 -8.585787e+000  5.000000e+000
    endloop
  endfacet
  facet normal  0.000000e+000  0.000000e+000  1.000000e+000
    outer loop
      vertex  2.558579e+001 -8.585787e+000  5.000000e+000
      vertex -3.100000e+001 -8.000000e+000  5.000000e+000
      vertex -2.958579e+001 -8.585787e+000  5.000000e+000
    endloop
  endfacet
  facet normal  -0.000000e+000  0.000000e+000  9.999999e-001
    outer loop
      vertex  2.558579e+001 -8.585787e+000  5.000000e+000
      vertex -2.958579e+001 -8.585787e+000  5.000000e+000
      vertex  2.500000e+001 -1.000000e+001  5.000000e+000
    endloop
  endfacet
  facet normal  0.000000e+000  0.000000e+000  1.000000e+000
    outer loop
      vertex  2.500000e+001 -1.000000e+001  5.000000e+000
      vertex -2.958579e+001 -8.585787e+000  5.000000e+000
      vertex -2.900000e+001 -1.000000e+001  5.000000e+000
    endloop
  endfacet
  facet normal  -0.000000e+000  0.000000e+000  1.000000e+000
    outer loop
      vertex  2.500000e+001 -1.000000e+001  5.000000e+000
      vertex -2.900000e+001 -1.000000e+001  5.000000e+000
      vertex  2.558579e+001 -1.141421e+001  5.000000e+000
    endloop
  endfacet
  facet normal  0.000000e+000  0.000000e+000  9.999999e-001
    outer loop
      vertex  2.558579e+001 -1.141421e+001  5.000000e+000
      vertex -2.900000e+001 -1.000000e+001  5.000000e+000
      vertex -2.958579e+001 -1.141421e+001  5.000000e+000
    endloop
  endfacet
  facet normal  -0.000000e+000  0.000000e+000  1.000000e+000
    outer loop
      vertex  2.558579e+001 -1.141421e+001  5.000000e+000
      vertex -2.958579e+001 -1.141421e+001  5.000000e+000
      vertex  2.700000e+001 -1.200000e+001  5.000000e+000
    endloop
  endfacet
  facet normal  0.000000e+000  0.000000e+000  1.000000e+000
    outer loop
      vertex  2.700000e+001 -1.200000e+001  5.000000e+000
      vertex -2.958579e+001 -1.141421e+001  5.000000e+000
      vertex -3.100000e+001 -1.200000e+001  5.000000e+000
    endloop
  endfacet
  facet normal  3.826833e-001 -9.238796e-001  0.000000e+000
    outer loop
      vertex -3.100000e+001 -8.000000e+000  0.000000e+000
      vertex -3.241422e+001 -8.585787e+000  5.000000e+000
      vertex -3.241422e+001 -8.585787e+000  0.000000e+000
    endloop
  endfacet
  facet normal  9.238799e-001 -3.826827e-001  0.000000e+000
    outer loop
      vertex -3.241422e+001 -8.585787e+000  0.000000e+000
      vertex -3.241422e+001 -8.585787e+000  5.000000e+000
      vertex -3.300000e+001 -1.000000e+001  5.000000e+000
    endloop
  endfacet
  facet normal  9.238799e-001 -3.826827e-001  0.000000e+000
    outer loop
      vertex -3.241422e+001 -8.585787e+000  0.000000e+000
      vertex -3.300000e+001 -1.000000e+001  5.000000e+000
      vertex -3.300000e+001 -1.000000e+001  0.000000e+000
    endloop
  endfacet
  facet normal  3.826833e-001 -9.238796e-001  0.000000e+000
    outer loop
      vertex -3.241422e+001 -8.585787e+000  5.000000e+000
      vertex -3.100000e+001 -8.000000e+000  0.000000e+000
      vertex -3.100000e+001 -8.000000e+000  5.000000e+000
    endloop
  endfacet
  facet normal -3.826838e-001 -9.238794e-001  -0.000000e+000
    outer loop
      vertex -3.100000e+001 -8.000000e+000  5.000000e+000
      vertex -3.100000e+001 -8.000000e+000  0.000000e+000
      vertex -2.958579e+001 -8.585787e+000  0.000000e+000
    endloop
  endfacet
  facet normal -3.826838e-001 -9.238794e-001  0.000000e+000
    outer loop
      vertex -3.100000e+001 -8.000000e+000  5.000000e+000
      vertex -2.958579e+001 -8.585787e+000  0.000000e+000
      vertex -2.958579e+001 -8.585787e+000  5.000000e+000
    endloop
  endfacet
  facet normal -9.238794e-001 -3.826838e-001  -0.000000e+000
    outer loop
      vertex -2.958579e+001 -8.585787e+000  5.000000e+000
      vertex -2.958579e+001 -8.585787e+000  0.000000e+000
      vertex -2.900000e+001 -1.000000e+001  0.000000e+000
    endloop
  endfacet
  facet normal -9.238794e-001 -3.826838e-001  0.000000e+000
    outer loop
      vertex -2.958579e+001 -8.585787e+000  5.000000e+000
      vertex -2.900000e+001 -1.000000e+001  0.000000e+000
      vertex -2.900000e+001 -1.000000e+001  5.000000e+000
    endloop
  endfacet
  facet normal -3.826838e-001  9.238794e-001  0.000000e+000
    outer loop
      vertex -3.100000e+001 -1.200000e+001  0.000000e+000
      vertex -2.958579e+001 -1.141421e+001  5.000000e+000
      vertex -2.958579e+001 -1.141421e+001  0.000000e+000
    endloop
  endfacet
  facet normal -9.238794e-001  3.826838e-001  0.000000e+000
    outer loop
      vertex -2.958579e+001 -1.141421e+001  0.000000e+000
      vertex -2.958579e+001 -1.141421e+001  5.000000e+000
      vertex -2.900000e+001 -1.000000e+001  5.000000e+000
    endloop
  endfacet
  facet normal -9.238794e-001  3.826838e-001  0.000000e+000
    outer loop
      vertex -2.958579e+001 -1.141421e+001  0.000000e+000
      vertex -2.900000e+001 -1.000000e+001  5.000000e+000
      vertex -2.900000e+001 -1.000000e+001  0.000000e+000
    endloop
  endfacet
  facet normal -3.826838e-001  9.238794e-001  0.000000e+000
    outer loop
      vertex -2.958579e+001 -1.141421e+001  5.000000e+000
      vertex -3.100000e+001 -1.200000e+001  0.000000e+000
      vertex -3.100000e+001 -1.200000e+001  5.000000e+000
    endloop
  endfacet
  facet normal  3.826833e-001  9.238796e-001  0.000000e+000
    outer loop
      vertex -3.100000e+001 -1.200000e+001  5.000000e+000
      vertex -3.100000e+001 -1.200000e+001  0.000000e+000
      vertex -3.241422e+001 -1.141421e+001  0.000000e+000
    endloop
  endfacet
  facet normal  3.826833e-001  9.238796e-001  -0.000000e+000
    outer loop
      vertex -3.100000e+001 -1.200000e+001  5.000000e+000
      vertex -3.241422e+001 -1.141421e+001  0.000000e+000
      vertex -3.241422e+001 -1.141421e+001  5.000000e+000
    endloop
  endfacet
  facet normal  9.238799e-001  3.826827e-001  0.000000e+000
    outer loop
      vertex -3.241422e+001 -1.141421e+001  5.000000e+000
      vertex -3.241422e+001 -1.141421e+001  0.000000e+000
      vertex -3.300000e+001 -1.000000e+001  0.000000e+000
    endloop
  endfacet
  facet normal  9.238799e-001  3.826827e-001  -0.000000e+000
    outer loop
      vertex -3.241422e+001 -1.141421e+001  5.000000e+000
      vertex -3.300000e+001 -1.000000e+001  0.000000e+000
      vertex -3.300000e+001 -1.000000e+001  5.000000e+000
    endloop
  endfacet
  facet normal  3.826833e-001 -9.238796e-001  0.000000e+000
    outer loop
      vertex -3.100000e+001  1.200000e+001  0.000000e+000
      vertex -3.241422e+001  1.141421e+001  5.000000e+000
      vertex -3.241422e+001  1.141421e+001  0.000000e+000
    endloop
  endfacet
  facet normal  9.238799e-001 -3.826827e-001  0.000000e+000
    outer loop
      vertex -3.241422e+001  1.141421e+001  0.000000e+000
      vertex -3.241422e+001  1.141421e+001  5.000000e+000
      vertex -3.300000e+001  1.000000e+001  5.000000e+000
    endloop
  endfacet
  facet normal  9.238799e-001 -3.826827e-001  0.000000e+000
    outer loop
      vertex -3.241422e+001  1.141421e+001  0.000000e+000
      vertex -3.300000e+001  1.000000e+001  5.000000e+000
      vertex -3.300000e+001  1.000000e+001  0.000000e+000
    endloop
  endfacet
  facet normal  3.826833e-001 -9.238796e-001  0.000000e+000
    outer loop
      vertex -3.241422e+001  1.141421e+001  5.000000e+000
      vertex -3.100000e+001  1.200000e+001  0.000000e+000
      vertex -3.100000e+001  1.200000e+001  5.000000e+000
    endloop
  endfacet
  facet normal -3.826838e-001 -9.238794e-001  -0.000000e+000
    outer loop
      vertex -3.100000e+001  1.200000e+001  5.000000e+000
      vertex -3.100000e+001  1.200000e+001  0.000000e+000
      vertex -2.958579e+001  1.141421e+001  0.000000e+000
    endloop
  endfacet
  facet normal -3.826838e-001 -9.238794e-001  0.000000e+000
    outer loop
      vertex -3.100000e+001  1.200000e+001  5.000000e+000
      vertex -2.958579e+001  1.141421e+001  0.000000e+000
      vertex -2.958579e+001  1.141421e+001  5.000000e+000
    endloop
  endfacet
  facet normal -9.238794e-001 -3.826838e-001  -0.000000e+000
    outer loop
      vertex -2.958579e+001  1.141421e+001  5.000000e+000
      vertex -2.958579e+001  1.141421e+001  0.000000e+000
      vertex -2.900000e+001  1.000000e+001  0.000000e+000
    endloop
  endfacet
  facet normal -9.238794e-001 -3.826838e-001  0.000000e+000
    outer loop
      vertex -2.958579e+001  1.141421e+001  5.000000e+000
      vertex -2.900000e+001  1.000000e+001  0.000000e+000
      vertex -2.900000e+001  1.000000e+001  5.000000e+000
    endloop
  endfacet
  facet normal -3.826838e-001  9.238794e-001  0.000000e+000
    outer loop
      vertex -3.100000e+001  8.000000e+000  0.000000e+000
      vertex -2.958579e+001  8.585787e+000  5.000000e+000
      vertex -2.958579e+001  8.585787e+000  0.000000e+000
    endloop
  endfacet
  facet normal -9.238794e-001  3.826838e-001  0.000000e+000
    outer loop
      vertex -2.958579e+001  8.585787e+000  0.000000e+000
      vertex -2.958579e+001  8.585787e+000  5.000000e+000
      vertex -2.900000e+001  1.000000e+001  5.000000e+000
    endloop
  endfacet
  facet normal -9.238794e-001  3.826838e-001  0.000000e+000
    outer loop
      vertex -2.958579e+001  8.585787e+000  0.000000e+000
      vertex -2.900000e+001  1.000000e+001  5.000000e+000
      vertex -2.900000e+001  1.000000e+001  0.000000e+000
    endloop
  endfacet
  facet normal -3.826838e-001  9.238794e-001  0.000000e+000
    outer loop
      vertex -2.958579e+001  8.585787e+000  5.000000e+000
      vertex -3.100000e+001  8.000000e+000  0.000000e+000
      vertex -3.100000e+001  8.000000e+000  5.000000e+000
    endloop
  endfacet
  facet normal  3.826833e-001  9.238796e-001  0.000000e+000
    outer loop
      vertex -3.100000e+001  8.000000e+000  5.000000e+000
      vertex -3.100000e+001  8.000000e+000  0.000000e+000
      vertex -3.241422e+001  8.585787e+000  0.000000e+000
    endloop
  endfacet
  facet normal  3.826833e-001  9.238796e-001  -0.000000e+000
    outer loop
      vertex -3.100000e+001  8.000000e+000  5.000000e+000
      vertex -3.241422e+001  8.585787e+000  0.000000e+000
      vertex -3.241422e+001  8.585787e+000  5.000000e+000
    endloop
  endfacet
  facet normal  9.238799e-001  3.826827e-001  0.000000e+000
    outer loop
      vertex -3.241422e+001  8.585787e+000  5.000000e+000
      vertex -3.241422e+001  8.585787e+000  0.000000e+000
      vertex -3.300000e+001  1.000000e+001  0.000000e+000
    endloop
  endfacet
  facet normal  9.238799e-001  3.826827e-001  -0.000000e+000
    outer loop
      vertex -3.241422e+001  8.585787e+000  5.000000e+000
      vertex -3.300000e+001  1.000000e+001  0.000000e+000
      vertex -3.300000e+001  1.000000e+001  5.000000e+000
    endloop
  endfacet
  facet normal  3.826838e-001 -9.238794e-001  0.000000e+000
    outer loop
      vertex  2.700000e+001 -8.000000e+000  0.000000e+000
      vertex  2.558579e+001 -8.585787e+000  5.000000e+000
      vertex  2.558579e+001 -8.585787e+000  0.000000e+000
    endloop
  endfacet
  facet normal  9.238794e-001 -3.826838e-001  0.000000e+000
    outer loop
      vertex  2.558579e+001 -8.585787e+000  0.000000e+000
      vertex  2.558579e+001 -8.585787e+000  5.000000e+000
      vertex  2.500000e+001 -1.000000e+001  5.000000e+000
    endloop
  endfacet
  facet normal  9.238794e-001 -3.826838e-001  0.000000e+000
    outer loop
      vertex  2.558579e+001 -8.585787e+000  0.000000e+000
      vertex  2.500000e+001 -1.000000e+001  5.000000e+000
      vertex  2.500000e+001 -1.000000e+001  0.000000e+000
    endloop
  endfacet
  facet normal  3.826838e-001 -9.238794e-001  0.000000e+000
    outer loop
      vertex  2.558579e+001 -8.585787e+000  5.000000e+000
      vertex  2.700000e+001 -8.000000e+000  0.000000e+000
      vertex  2.700000e+001 -8.000000e+000  5.000000e+000
    endloop
  endfacet
  facet normal -3.826838e-001 -9.238794e-001  -0.000000e+000
    outer loop
      vertex  2.700000e+001 -8.000000e+000  5.000000e+000
      vertex  2.700000e+001 -8.000000e+000  0.000000e+000
      vertex  2.841421e+001 -8.585787e+000  0.000000e+000
    endloop
  endfacet
  facet normal -3.826838e-001 -9.238794e-001  0.000000e+000
    outer loop
      vertex  2.700000e+001 -8.000000e+000  5.000000e+000
      vertex  2.841421e+001 -8.585787e+000  0.000000e+000
      vertex  2.841421e+001 -8.585787e+000  5.000000e+000
    endloop
  endfacet
  facet normal -9.238794e-001 -3.826838e-001  -0.000000e+000
    outer loop
      vertex  2.841421e+001 -8.585787e+000  5.000000e+000
      vertex  2.841421e+001 -8.585787e+000  0.000000e+000
      vertex  2.900000e+001 -1.000000e+001  0.000000e+000
    endloop
  endfacet
  facet normal -9.238794e-001 -3.826838e-001  0.000000e+000
    outer loop
      vertex  2.841421e+001 -8.585787e+000  5.000000e+000
      vertex  2.900000e+001 -1.000000e+001  0.000000e+000
      vertex  2.900000e+001 -1.000000e+001  5.000000e+000
    endloop
  endfacet
  facet normal -3.826838e-001  9.238794e-001  0.000000e+000
    outer loop
      vertex  2.700000e+001 -1.200000e+001  0.000000e+000
      vertex  2.841421e+001 -1.141421e+001  5.000000e+000
      vertex  2.841421e+001 -1.141421e+001  0.000000e+000
    endloop
  endfacet
  facet normal -9.238794e-001  3.826838e-001  0.000000e+000
    outer loop
      vertex  2.841421e+001 -1.141421e+001  0.000000e+000
      vertex  2.841421e+001 -1.141421e+001  5.000000e+000
      vertex  2.900000e+001 -1.000000e+001  5.000000e+000
    endloop
  endfacet
  facet normal -9.238794e-001  3.826838e-001  0.000000e+000
    outer loop
      vertex  2.841421e+001 -1.141421e+001  0.000000e+000
      vertex  2.900000e+001 -1.000000e+001  5.000000e+000
      vertex  2.900000e+001 -1.000000e+001  0.000000e+000
    endloop
  endfacet
  facet normal -3.826838e-001  9.238794e-001  0.000000e+000
    outer loop
      vertex  2.841421e+001 -1.141421e+001  5.000000e+000
      vertex  2.700000e+001 -1.200000e+001  0.000000e+000
      vertex  2.700000e+001 -1.200000e+001  5.000000e+000
    endloop
  endfacet
  facet normal  3.826838e-001  9.238794e-001  0.000000e+000
    outer loop
      vertex  2.700000e+001 -1.200000e+001  5.000000e+000
      vertex  2.700000e+001 -1.200000e+001  0.000000e+000
      vertex  2.558579e+001 -1.141421e+001  0.000000e+000
    endloop
  endfacet
  facet normal  3.826838e-001  9.238794e-001  -0.000000e+000
    outer loop
      vertex  2.700000e+001 -1.200000e+001  5.000000e+000
      vertex  2.558579e+001 -1.141421e+001  0.000000e+000
      vertex  2.558579e+001 -1.141421e+001  5.000000e+000
    endloop
  endfacet
  facet normal  9.238794e-001  3.826838e-001  0.000000e+000
    outer loop
      vertex  2.558579e+001 -1.141421e+001  5.000000e+000
      vertex  2.558579e+001 -1.141421e+001  0.000000e+000
      vertex  2.500000e+001 -1.000000e+001  0.000000e+000
    endloop
  endfacet
  facet normal  9.238794e-001  3.826838e-001  -0.000000e+000
    outer loop
      vertex  2.558579e+001 -1.141421e+001  5.000000e+000
      vertex  2.500000e+001 -1.000000e+001  0.000000e+000
      vertex  2.500000e+001 -1.000000e+001  5.000000e+000
    endloop
  endfacet
  facet normal  3.826838e-001 -9.238794e-001  0.000000e+000
    outer loop
      vertex  2.700000e+001  1.200000e+001  0.000000e+000
      vertex  2.558579e+001  1.141421e+001  5.000000e+000
      vertex  2.558579e+001  1.141421e+001  0.000000e+000
    endloop
  endfacet
  facet normal  9.238794e-001 -3.826838e-001  0.000000e+000
    outer loop
      vertex  2.558579e+001  1.141421e+001  0.000000e+000
      vertex  2.558579e+001  1.141421e+001  5.000000e+000
      vertex  2.500000e+001  1.000000e+001  5.000000e+000
    endloop
  endfacet
  facet normal  9.238794e-001 -3.826838e-001  0.000000e+000
    outer loop
      vertex  2.558579e+001  1.141421e+001  0.000000e+000
      vertex  2.500000e+001  1.000000e+001  5.000000e+000
      vertex  2.500000e+001  1.000000e+001  0.000000e+000
    endloop
  endfacet
  facet normal  3.826838e-001 -9.238794e-001  0.000000e+000
    outer loop
      vertex  2.558579e+001  1.141421e+001  5.000000e+000
      vertex  2.700000e+001  1.200000e+001  0.000000e+000
      vertex  2.700000e+001  1.200000e+001  5.000000e+000
    endloop
  endfacet
  facet normal -3.826838e-001 -9.238794e-001  -0.000000e+000
    outer loop
      vertex  2.700000e+001  1.200000e+001  5.000000e+000
      vertex  2.700000e+001  1.200000e+001  0.000000e+000
      vertex  2.841421e+001  1.141421e+001  0.000000e+000
    endloop
  endfacet
  facet normal -3.826838e-001 -9.238794e-001  0.000000e+000
    outer loop
      vertex  2.700000e+001  1.200000e+001  5.000000e+000
      vertex  2.841421e+001  1.141421e+001  0.000000e+000
      vertex  2.841421e+001  1.141421e+001  5.000000e+000
    endloop
  endfacet
  facet normal -9.238794e-001 -3.826838e-001  -0.000000e+000
    outer loop
      vertex  2.841421e+001  1.141421e+001  5.000000e+000
      vertex  2.841421e+001  1.141421e+001  0.000000e+000
      vertex  2.900000e+001  1.000000e+001  0.000000e+000
    endloop
  endfacet
  facet normal -9.238794e-001 -3.826838e-001  0.000000e+000
    outer loop
      vertex  2.841421e+001  1.141421e+001  5.000000e+000
      vertex  2.900000e+001  1.000000e+001  0.000000e+000
      vertex  2.900000e+001  1.000000e+001  5.000000e+000
    endloop
  endfacet
  facet normal -3.826838e-001  9.238794e-001  0.000000e+000
    outer loop
      vertex  2.700000e+001  8.000000e+000  0.000000e+000
      vertex  2.841421e+001  8.585787e+000  5.000000e+000
      vertex  2.841421e+001  8.585787e+000  0.000000e+000
    endloop
  endfacet
  facet normal -9.238794e-001  3.826838e-001  0.000000e+000
    outer loop
      vertex  2.841421e+001  8.585787e+000  0.000000e+000
      vertex  2.841421e+001  8.585787e+000  5.000000e+000
      vertex  2.900000e+001  1.000000e+001  5.000000e+000
    endloop
  endfacet
  facet normal -9.238794e-001  3.826838e-001  0.000000e+000
    outer loop
      vertex  2.841421e+001  8.585787e+000  0.000000e+000
      vertex  2.900000e+001  1.000000e+001  5.000000e+000
      vertex  2.900000e+001  1.000000e+001  0.000000e+000
    endloop
  endfacet
  facet normal -3.826838e-001  9.238794e-001  0.000000e+000
    outer loop
      vertex  2.841421e+001  8.585787e+000  5.000000e+000
      vertex  2.700000e+001  8.000000e+000  0.000000e+000
      vertex  2.700000e+001  8.000000e+000  5.000000e+000
    endloop
  endfacet
  facet normal  3.826838e-001  9.238794e-001  0.000000e+000
    outer loop
      vertex  2.700000e+001  8.000000e+000  5.000000e+000
      vertex  2.700000e+001  8.000000e+000  0.000000e+000
      vertex  2.558579e+001  8.585787e+000  0.000000e+000
    endloop
  endfacet
  facet normal  3.826838e-001  9.238794e-001  -0.000000e+000
    outer loop
      vertex  2.700000e+001  8.000000e+000  5.000000e+000
      vertex  2.558579e+001  8.585787e+000  0.000000e+000
      vertex  2.558579e+001  8.585787e+000  5.000000e+000
    endloop
  endfacet
  facet normal  9.238794e-001  3.826838e-001  0.000000e+000
    outer loop
      vertex  2.558579e+001  8.585787e+000  5.000000e+000
      vertex  2.558579e+001  8.585787e+000  0.000000e+000
      vertex  2.500000e+001  1.000000e+001  0.000000e+000
    endloop
  endfacet
  facet normal  9.238794e-001  3.826838e-001  -0.000000e+000
    outer loop
      vertex  2.558579e+001  8.585787e+000  5.000000e+000
      vertex  2.500000e+001  1.000000e+001  0.000000e+000
      vertex  2.500000e+001  1.000000e+001  5.000000e+000
    endloop
  endfacet
endsolid CATIA STL
