solid CATIA STL
  facet normal  0.000000e+000  0.000000e+000  1.000000e+000
    outer loop
      vertex -3.500000e+001  2.100000e+001  2.000000e+001
      vertex -3.500000e+001  1.800000e+001  2.000000e+001
      vertex  3.400000e+001  2.100000e+001  2.000000e+001
    endloop
  endfacet
  facet normal  0.000000e+000  0.000000e+000  1.000000e+000
    outer loop
      vertex  3.400000e+001  2.100000e+001  2.000000e+001
      vertex -3.500000e+001  1.800000e+001  2.000000e+001
      vertex  3.100000e+001  1.800000e+001  2.000000e+001
    endloop
  endfacet
  facet normal  -0.000000e+000  0.000000e+000  1.000000e+000
    outer loop
      vertex  3.400000e+001  2.100000e+001  2.000000e+001
      vertex  3.100000e+001  1.800000e+001  2.000000e+001
      vertex  3.400000e+001 -2.100000e+001  2.000000e+001
    endloop
  endfacet
  facet normal  0.000000e+000  0.000000e+000  1.000000e+000
    outer loop
      vertex  3.400000e+001 -2.100000e+001  2.000000e+001
      vertex  3.100000e+001  1.800000e+001  2.000000e+001
      vertex  3.100000e+001 -1.800000e+001  2.000000e+001
    endloop
  endfacet
  facet normal  0.000000e+000  0.000000e+000  1.000000e+000
    outer loop
      vertex  3.400000e+001 -2.100000e+001  2.000000e+001
      vertex  3.100000e+001 -1.800000e+001  2.000000e+001
      vertex -3.500000e+001 -2.100000e+001  2.000000e+001
    endloop
  endfacet
  facet normal  0.000000e+000  0.000000e+000  1.000000e+000
    outer loop
      vertex -3.500000e+001 -2.100000e+001  2.000000e+001
      vertex  3.100000e+001 -1.800000e+001  2.000000e+001
      vertex -3.500000e+001 -1.800000e+001  2.000000e+001
    endloop
  endfacet
  facet normal  0.000000e+000  3.826823e-001  9.238801e-001
    outer loop
      vertex -3.500000e+001  2.100000e+001  2.000000e+001
      vertex  3.400000e+001  2.100000e+001  2.000000e+001
      vertex -3.500000e+001  2.170711e+001  1.970711e+001
    endloop
  endfacet
  facet normal  -0.000000e+000  3.826823e-001  9.238801e-001
    outer loop
      vertex -3.500000e+001  2.170711e+001  1.970711e+001
      vertex  3.400000e+001  2.100000e+001  2.000000e+001
      vertex  3.400000e+001  2.170711e+001  1.970711e+001
    endloop
  endfacet
  facet normal  0.000000e+000  9.238801e-001  3.826823e-001
    outer loop
      vertex -3.500000e+001  2.170711e+001  1.970711e+001
      vertex  3.400000e+001  2.170711e+001  1.970711e+001
      vertex -3.500000e+001  2.200000e+001  1.900000e+001
    endloop
  endfacet
  facet normal  -0.000000e+000  9.238801e-001  3.826823e-001
    outer loop
      vertex -3.500000e+001  2.200000e+001  1.900000e+001
      vertex  3.400000e+001  2.170711e+001  1.970711e+001
      vertex  3.400000e+001  2.200000e+001  1.900000e+001
    endloop
  endfacet
  facet normal  9.999999e-001  -0.000000e+000  0.000000e+000
    outer loop
      vertex  3.500000e+001  2.100000e+001  1.900000e+001
      vertex  3.500000e+001  1.000000e+001  1.700000e+001
      vertex  3.500000e+001  2.100000e+001  0.000000e+000
    endloop
  endfacet
  facet normal  1.000000e+000  0.000000e+000  0.000000e+000
    outer loop
      vertex  3.500000e+001  2.100000e+001  0.000000e+000
      vertex  3.500000e+001  1.000000e+001  1.700000e+001
      vertex  3.500000e+001  1.000000e+001  1.000000e+001
    endloop
  endfacet
  facet normal  1.000000e+000  0.000000e+000  0.000000e+000
    outer loop
      vertex  3.500000e+001  2.100000e+001  0.000000e+000
      vertex  3.500000e+001  1.000000e+001  1.000000e+001
      vertex  3.500000e+001 -2.100000e+001  0.000000e+000
    endloop
  endfacet
  facet normal  1.000000e+000  0.000000e+000  0.000000e+000
    outer loop
      vertex  3.500000e+001 -2.100000e+001  0.000000e+000
      vertex  3.500000e+001  1.000000e+001  1.000000e+001
      vertex  3.500000e+001 -1.000000e+001  1.000000e+001
    endloop
  endfacet
  facet normal  9.999999e-001  0.000000e+000  0.000000e+000
    outer loop
      vertex  3.500000e+001 -2.100000e+001  0.000000e+000
      vertex  3.500000e+001 -1.000000e+001  1.000000e+001
      vertex  3.500000e+001 -2.100000e+001  1.900000e+001
    endloop
  endfacet
  facet normal  1.000000e+000  0.000000e+000  0.000000e+000
    outer loop
      vertex  3.500000e+001 -2.100000e+001  1.900000e+001
      vertex  3.500000e+001 -1.000000e+001  1.000000e+001
      vertex  3.500000e+001 -1.000000e+001  1.700000e+001
    endloop
  endfacet
  facet normal  1.000000e+000  0.000000e+000  -0.000000e+000
    outer loop
      vertex  3.500000e+001 -2.100000e+001  1.900000e+001
      vertex  3.500000e+001 -1.000000e+001  1.700000e+001
      vertex  3.500000e+001  2.100000e+001  1.900000e+001
    endloop
  endfacet
  facet normal  1.000000e+000  0.000000e+000  0.000000e+000
    outer loop
      vertex  3.500000e+001  2.100000e+001  1.900000e+001
      vertex  3.500000e+001 -1.000000e+001  1.700000e+001
      vertex  3.500000e+001  1.000000e+001  1.700000e+001
    endloop
  endfacet
  facet normal  0.000000e+000  1.000000e+000  -0.000000e+000
    outer loop
      vertex  3.400000e+001  2.200000e+001  1.900000e+001
      vertex  3.400000e+001  2.200000e+001  0.000000e+000
      vertex -3.500000e+001  2.200000e+001  1.900000e+001
    endloop
  endfacet
  facet normal  0.000000e+000  1.000000e+000  0.000000e+000
    outer loop
      vertex -3.500000e+001  2.200000e+001  1.900000e+001
      vertex  3.400000e+001  2.200000e+001  0.000000e+000
      vertex -3.500000e+001  2.200000e+001  0.000000e+000
    endloop
  endfacet
  facet normal  0.000000e+000 -9.238801e-001  3.826823e-001
    outer loop
      vertex -3.500000e+001 -2.200000e+001  1.900000e+001
      vertex  3.400000e+001 -2.200000e+001  1.900000e+001
      vertex -3.500000e+001 -2.170711e+001  1.970711e+001
    endloop
  endfacet
  facet normal  0.000000e+000 -9.238801e-001  3.826823e-001
    outer loop
      vertex -3.500000e+001 -2.170711e+001  1.970711e+001
      vertex  3.400000e+001 -2.200000e+001  1.900000e+001
      vertex  3.400000e+001 -2.170711e+001  1.970711e+001
    endloop
  endfacet
  facet normal  0.000000e+000 -3.826823e-001  9.238801e-001
    outer loop
      vertex -3.500000e+001 -2.170711e+001  1.970711e+001
      vertex  3.400000e+001 -2.170711e+001  1.970711e+001
      vertex -3.500000e+001 -2.100000e+001  2.000000e+001
    endloop
  endfacet
  facet normal  0.000000e+000 -3.826823e-001  9.238801e-001
    outer loop
      vertex -3.500000e+001 -2.100000e+001  2.000000e+001
      vertex  3.400000e+001 -2.170711e+001  1.970711e+001
      vertex  3.400000e+001 -2.100000e+001  2.000000e+001
    endloop
  endfacet
  facet normal  0.000000e+000 -1.000000e+000  0.000000e+000
    outer loop
      vertex  3.400000e+001 -2.200000e+001  1.900000e+001
      vertex -3.500000e+001 -2.200000e+001  1.900000e+001
      vertex  3.400000e+001 -2.200000e+001  0.000000e+000
    endloop
  endfacet
  facet normal  0.000000e+000 -1.000000e+000  0.000000e+000
    outer loop
      vertex  3.400000e+001 -2.200000e+001  0.000000e+000
      vertex -3.500000e+001 -2.200000e+001  1.900000e+001
      vertex -3.500000e+001 -2.200000e+001  0.000000e+000
    endloop
  endfacet
  facet normal  -0.000000e+000  0.000000e+000 -9.999999e-001
    outer loop
      vertex -3.100000e+001  8.000000e+000  0.000000e+000
      vertex -3.241422e+001 -8.585787e+000  0.000000e+000
      vertex -3.300000e+001 -1.000000e+001  0.000000e+000
    endloop
  endfacet
  facet normal  -0.000000e+000  0.000000e+000 -9.999999e-001
    outer loop
      vertex -3.100000e+001  8.000000e+000  0.000000e+000
      vertex -3.100000e+001 -8.000000e+000  0.000000e+000
      vertex -3.241422e+001 -8.585787e+000  0.000000e+000
    endloop
  endfacet
  facet normal  0.000000e+000  0.000000e+000 -9.999999e-001
    outer loop
      vertex  2.700000e+001 -8.000000e+000  0.000000e+000
      vertex  2.700000e+001  8.000000e+000  0.000000e+000
      vertex  2.841421e+001 -8.585787e+000  0.000000e+000
    endloop
  endfacet
  facet normal  0.000000e+000  0.000000e+000 -1.000000e+000
    outer loop
      vertex -3.500000e+001 -2.200000e+001  0.000000e+000
      vertex -3.500000e+001  2.200000e+001  0.000000e+000
      vertex -3.300000e+001  1.000000e+001  0.000000e+000
    endloop
  endfacet
  facet normal  0.000000e+000  -0.000000e+000 -1.000000e+000
    outer loop
      vertex -3.500000e+001 -2.200000e+001  0.000000e+000
      vertex -3.300000e+001  1.000000e+001  0.000000e+000
      vertex -3.241422e+001  8.585787e+000  0.000000e+000
    endloop
  endfacet
  facet normal  0.000000e+000  -0.000000e+000 -1.000000e+000
    outer loop
      vertex -3.500000e+001 -2.200000e+001  0.000000e+000
      vertex -3.241422e+001  8.585787e+000  0.000000e+000
      vertex -3.100000e+001  8.000000e+000  0.000000e+000
    endloop
  endfacet
  facet normal  0.000000e+000  0.000000e+000 -1.000000e+000
    outer loop
      vertex -3.500000e+001 -2.200000e+001  0.000000e+000
      vertex -3.100000e+001  8.000000e+000  0.000000e+000
      vertex -3.300000e+001 -1.000000e+001  0.000000e+000
    endloop
  endfacet
  facet normal  0.000000e+000  -0.000000e+000 -1.000000e+000
    outer loop
      vertex -3.500000e+001 -2.200000e+001  0.000000e+000
      vertex -3.300000e+001 -1.000000e+001  0.000000e+000
      vertex -3.241422e+001 -1.141421e+001  0.000000e+000
    endloop
  endfacet
  facet normal  0.000000e+000  -0.000000e+000 -1.000000e+000
    outer loop
      vertex -3.500000e+001 -2.200000e+001  0.000000e+000
      vertex -3.241422e+001 -1.141421e+001  0.000000e+000
      vertex -3.100000e+001 -1.200000e+001  0.000000e+000
    endloop
  endfacet
  facet normal  -0.000000e+000  0.000000e+000 -1.000000e+000
    outer loop
      vertex -3.500000e+001  2.200000e+001  0.000000e+000
      vertex  3.400000e+001  2.200000e+001  0.000000e+000
      vertex  2.700000e+001  1.200000e+001  0.000000e+000
    endloop
  endfacet
  facet normal  0.000000e+000  0.000000e+000 -1.000000e+000
    outer loop
      vertex -3.500000e+001  2.200000e+001  0.000000e+000
      vertex  2.700000e+001  1.200000e+001  0.000000e+000
      vertex -3.100000e+001  1.200000e+001  0.000000e+000
    endloop
  endfacet
  facet normal  -0.000000e+000  0.000000e+000 -1.000000e+000
    outer loop
      vertex -3.500000e+001  2.200000e+001  0.000000e+000
      vertex -3.100000e+001  1.200000e+001  0.000000e+000
      vertex -3.241422e+001  1.141421e+001  0.000000e+000
    endloop
  endfacet
  facet normal  -0.000000e+000  0.000000e+000 -1.000000e+000
    outer loop
      vertex -3.500000e+001  2.200000e+001  0.000000e+000
      vertex -3.241422e+001  1.141421e+001  0.000000e+000
      vertex -3.300000e+001  1.000000e+001  0.000000e+000
    endloop
  endfacet
  facet normal  0.000000e+000  0.000000e+000 -1.000000e+000
    outer loop
      vertex  3.500000e+001 -2.100000e+001  0.000000e+000
      vertex  2.700000e+001 -1.200000e+001  0.000000e+000
      vertex  2.841421e+001 -1.141421e+001  0.000000e+000
    endloop
  endfacet
  facet normal  0.000000e+000  0.000000e+000 -1.000000e+000
    outer loop
      vertex  3.500000e+001 -2.100000e+001  0.000000e+000
      vertex  2.841421e+001 -1.141421e+001  0.000000e+000
      vertex  2.900000e+001 -1.000000e+001  0.000000e+000
    endloop
  endfacet
  facet normal  0.000000e+000  0.000000e+000 -1.000000e+000
    outer loop
      vertex  3.500000e+001 -2.100000e+001  0.000000e+000
      vertex  2.900000e+001 -1.000000e+001  0.000000e+000
      vertex  2.841421e+001 -8.585787e+000  0.000000e+000
    endloop
  endfacet
  facet normal  0.000000e+000  0.000000e+000 -1.000000e+000
    outer loop
      vertex  3.500000e+001 -2.100000e+001  0.000000e+000
      vertex  2.841421e+001 -8.585787e+000  0.000000e+000
      vertex  2.700000e+001  8.000000e+000  0.000000e+000
    endloop
  endfacet
  facet normal  0.000000e+000  0.000000e+000 -9.999999e-001
    outer loop
      vertex  3.500000e+001 -2.100000e+001  0.000000e+000
      vertex  2.700000e+001  8.000000e+000  0.000000e+000
      vertex  2.841421e+001  8.585787e+000  0.000000e+000
    endloop
  endfacet
  facet normal  0.000000e+000  0.000000e+000 -1.000000e+000
    outer loop
      vertex  3.500000e+001 -2.100000e+001  0.000000e+000
      vertex  2.841421e+001  8.585787e+000  0.000000e+000
      vertex  2.900000e+001  1.000000e+001  0.000000e+000
    endloop
  endfacet
  facet normal  0.000000e+000  0.000000e+000 -1.000000e+000
    outer loop
      vertex  3.500000e+001  2.100000e+001  0.000000e+000
      vertex  3.500000e+001 -2.100000e+001  0.000000e+000
      vertex  2.900000e+001  1.000000e+001  0.000000e+000
    endloop
  endfacet
  facet normal  0.000000e+000  0.000000e+000 -1.000000e+000
    outer loop
      vertex  3.500000e+001  2.100000e+001  0.000000e+000
      vertex  2.900000e+001  1.000000e+001  0.000000e+000
      vertex  2.841421e+001  1.141421e+001  0.000000e+000
    endloop
  endfacet
  facet normal  0.000000e+000  0.000000e+000 -1.000000e+000
    outer loop
      vertex  3.500000e+001  2.100000e+001  0.000000e+000
      vertex  2.841421e+001  1.141421e+001  0.000000e+000
      vertex  2.700000e+001  1.200000e+001  0.000000e+000
    endloop
  endfacet
  facet normal  0.000000e+000  0.000000e+000 -1.000000e+000
    outer loop
      vertex  3.500000e+001  2.100000e+001  0.000000e+000
      vertex  2.700000e+001  1.200000e+001  0.000000e+000
      vertex  3.400000e+001  2.200000e+001  0.000000e+000
    endloop
  endfacet
  facet normal  0.000000e+000  0.000000e+000 -9.999999e-001
    outer loop
      vertex  3.500000e+001  2.100000e+001  0.000000e+000
      vertex  3.400000e+001  2.200000e+001  0.000000e+000
      vertex  3.470711e+001  2.170711e+001  0.000000e+000
    endloop
  endfacet
  facet normal  0.000000e+000  0.000000e+000 -9.999999e-001
    outer loop
      vertex  3.470711e+001 -2.170711e+001  0.000000e+000
      vertex  3.400000e+001 -2.200000e+001  0.000000e+000
      vertex  3.500000e+001 -2.100000e+001  0.000000e+000
    endloop
  endfacet
  facet normal  -0.000000e+000  0.000000e+000 -1.000000e+000
    outer loop
      vertex  3.500000e+001 -2.100000e+001  0.000000e+000
      vertex  3.400000e+001 -2.200000e+001  0.000000e+000
      vertex  2.700000e+001 -1.200000e+001  0.000000e+000
    endloop
  endfacet
  facet normal  0.000000e+000  0.000000e+000 -1.000000e+000
    outer loop
      vertex  3.400000e+001 -2.200000e+001  0.000000e+000
      vertex -3.500000e+001 -2.200000e+001  0.000000e+000
      vertex  2.700000e+001 -1.200000e+001  0.000000e+000
    endloop
  endfacet
  facet normal  -0.000000e+000  0.000000e+000 -1.000000e+000
    outer loop
      vertex  2.700000e+001 -1.200000e+001  0.000000e+000
      vertex -3.500000e+001 -2.200000e+001  0.000000e+000
      vertex -3.100000e+001 -1.200000e+001  0.000000e+000
    endloop
  endfacet
  facet normal  0.000000e+000  0.000000e+000 -1.000000e+000
    outer loop
      vertex  2.700000e+001  8.000000e+000  0.000000e+000
      vertex -2.958579e+001  8.585787e+000  0.000000e+000
      vertex  2.558579e+001  8.585787e+000  0.000000e+000
    endloop
  endfacet
  facet normal  0.000000e+000  0.000000e+000 -9.999999e-001
    outer loop
      vertex  2.558579e+001  8.585787e+000  0.000000e+000
      vertex -2.958579e+001  8.585787e+000  0.000000e+000
      vertex -2.900000e+001  1.000000e+001  0.000000e+000
    endloop
  endfacet
  facet normal  0.000000e+000  0.000000e+000 -1.000000e+000
    outer loop
      vertex  2.558579e+001  8.585787e+000  0.000000e+000
      vertex -2.900000e+001  1.000000e+001  0.000000e+000
      vertex  2.500000e+001  1.000000e+001  0.000000e+000
    endloop
  endfacet
  facet normal  0.000000e+000  0.000000e+000 -1.000000e+000
    outer loop
      vertex  2.500000e+001  1.000000e+001  0.000000e+000
      vertex -2.900000e+001  1.000000e+001  0.000000e+000
      vertex -2.958579e+001  1.141421e+001  0.000000e+000
    endloop
  endfacet
  facet normal  0.000000e+000  0.000000e+000 -9.999999e-001
    outer loop
      vertex  2.500000e+001  1.000000e+001  0.000000e+000
      vertex -2.958579e+001  1.141421e+001  0.000000e+000
      vertex  2.558579e+001  1.141421e+001  0.000000e+000
    endloop
  endfacet
  facet normal  0.000000e+000  0.000000e+000 -1.000000e+000
    outer loop
      vertex  2.558579e+001  1.141421e+001  0.000000e+000
      vertex -2.958579e+001  1.141421e+001  0.000000e+000
      vertex -3.100000e+001  1.200000e+001  0.000000e+000
    endloop
  endfacet
  facet normal  0.000000e+000  0.000000e+000 -1.000000e+000
    outer loop
      vertex  2.558579e+001  1.141421e+001  0.000000e+000
      vertex -3.100000e+001  1.200000e+001  0.000000e+000
      vertex  2.700000e+001  1.200000e+001  0.000000e+000
    endloop
  endfacet
  facet normal  0.000000e+000  0.000000e+000 -1.000000e+000
    outer loop
      vertex -2.958579e+001  8.585787e+000  0.000000e+000
      vertex  2.700000e+001  8.000000e+000  0.000000e+000
      vertex -3.100000e+001  8.000000e+000  0.000000e+000
    endloop
  endfacet
  facet normal  0.000000e+000  0.000000e+000 -1.000000e+000
    outer loop
      vertex -3.100000e+001  8.000000e+000  0.000000e+000
      vertex  2.700000e+001  8.000000e+000  0.000000e+000
      vertex  2.700000e+001 -8.000000e+000  0.000000e+000
    endloop
  endfacet
  facet normal  0.000000e+000  0.000000e+000 -1.000000e+000
    outer loop
      vertex -3.100000e+001  8.000000e+000  0.000000e+000
      vertex  2.700000e+001 -8.000000e+000  0.000000e+000
      vertex -3.100000e+001 -8.000000e+000  0.000000e+000
    endloop
  endfacet
  facet normal  0.000000e+000  0.000000e+000 -1.000000e+000
    outer loop
      vertex -3.100000e+001 -8.000000e+000  0.000000e+000
      vertex  2.700000e+001 -8.000000e+000  0.000000e+000
      vertex  2.558579e+001 -8.585787e+000  0.000000e+000
    endloop
  endfacet
  facet normal  0.000000e+000  0.000000e+000 -1.000000e+000
    outer loop
      vertex -3.100000e+001 -8.000000e+000  0.000000e+000
      vertex  2.558579e+001 -8.585787e+000  0.000000e+000
      vertex -2.958579e+001 -8.585787e+000  0.000000e+000
    endloop
  endfacet
  facet normal  0.000000e+000  0.000000e+000 -9.999999e-001
    outer loop
      vertex -2.958579e+001 -8.585787e+000  0.000000e+000
      vertex  2.558579e+001 -8.585787e+000  0.000000e+000
      vertex  2.500000e+001 -1.000000e+001  0.000000e+000
    endloop
  endfacet
  facet normal  0.000000e+000  0.000000e+000 -1.000000e+000
    outer loop
      vertex -2.958579e+001 -8.585787e+000  0.000000e+000
      vertex  2.500000e+001 -1.000000e+001  0.000000e+000
      vertex -2.900000e+001 -1.000000e+001  0.000000e+000
    endloop
  endfacet
  facet normal  0.000000e+000  0.000000e+000 -1.000000e+000
    outer loop
      vertex -2.900000e+001 -1.000000e+001  0.000000e+000
      vertex  2.500000e+001 -1.000000e+001  0.000000e+000
      vertex  2.558579e+001 -1.141421e+001  0.000000e+000
    endloop
  endfacet
  facet normal  0.000000e+000  0.000000e+000 -9.999999e-001
    outer loop
      vertex -2.900000e+001 -1.000000e+001  0.000000e+000
      vertex  2.558579e+001 -1.141421e+001  0.000000e+000
      vertex -2.958579e+001 -1.141421e+001  0.000000e+000
    endloop
  endfacet
  facet normal  0.000000e+000  0.000000e+000 -1.000000e+000
    outer loop
      vertex -2.958579e+001 -1.141421e+001  0.000000e+000
      vertex  2.558579e+001 -1.141421e+001  0.000000e+000
      vertex  2.700000e+001 -1.200000e+001  0.000000e+000
    endloop
  endfacet
  facet normal  0.000000e+000  0.000000e+000 -1.000000e+000
    outer loop
      vertex -2.958579e+001 -1.141421e+001  0.000000e+000
      vertex  2.700000e+001 -1.200000e+001  0.000000e+000
      vertex -3.100000e+001 -1.200000e+001  0.000000e+000
    endloop
  endfacet
  facet normal  9.238800e-001 -3.826822e-001  0.000000e+000
    outer loop
      vertex  3.500000e+001 -2.100000e+001  0.000000e+000
      vertex  3.500000e+001 -2.100000e+001  1.900000e+001
      vertex  3.470711e+001 -2.170711e+001  0.000000e+000
    endloop
  endfacet
  facet normal  9.238800e-001 -3.826822e-001  0.000000e+000
    outer loop
      vertex  3.470711e+001 -2.170711e+001  0.000000e+000
      vertex  3.500000e+001 -2.100000e+001  1.900000e+001
      vertex  3.470711e+001 -2.170711e+001  1.900000e+001
    endloop
  endfacet
  facet normal  3.826822e-001 -9.238800e-001  0.000000e+000
    outer loop
      vertex  3.470711e+001 -2.170711e+001  0.000000e+000
      vertex  3.470711e+001 -2.170711e+001  1.900000e+001
      vertex  3.400000e+001 -2.200000e+001  0.000000e+000
    endloop
  endfacet
  facet normal  3.826822e-001 -9.238800e-001  0.000000e+000
    outer loop
      vertex  3.400000e+001 -2.200000e+001  0.000000e+000
      vertex  3.470711e+001 -2.170711e+001  1.900000e+001
      vertex  3.400000e+001 -2.200000e+001  1.900000e+001
    endloop
  endfacet
  facet normal  3.826822e-001  9.238800e-001  0.000000e+000
    outer loop
      vertex  3.400000e+001  2.200000e+001  0.000000e+000
      vertex  3.400000e+001  2.200000e+001  1.900000e+001
      vertex  3.470711e+001  2.170711e+001  0.000000e+000
    endloop
  endfacet
  facet normal  3.826822e-001  9.238800e-001  -0.000000e+000
    outer loop
      vertex  3.470711e+001  2.170711e+001  0.000000e+000
      vertex  3.400000e+001  2.200000e+001  1.900000e+001
      vertex  3.470711e+001  2.170711e+001  1.900000e+001
    endloop
  endfacet
  facet normal  9.238800e-001  3.826822e-001  0.000000e+000
    outer loop
      vertex  3.470711e+001  2.170711e+001  0.000000e+000
      vertex  3.470711e+001  2.170711e+001  1.900000e+001
      vertex  3.500000e+001  2.100000e+001  0.000000e+000
    endloop
  endfacet
  facet normal  9.238800e-001  3.826822e-001  -0.000000e+000
    outer loop
      vertex  3.500000e+001  2.100000e+001  0.000000e+000
      vertex  3.470711e+001  2.170711e+001  1.900000e+001
      vertex  3.500000e+001  2.100000e+001  1.900000e+001
    endloop
  endfacet
  facet normal  9.124874e-001  1.565581e-001  3.779633e-001
    outer loop
      vertex  3.500000e+001  2.100000e+001  1.900000e+001
      vertex  3.470711e+001  2.150000e+001  1.950000e+001
      vertex  3.470711e+001  2.100000e+001  1.970711e+001
    endloop
  endfacet
  facet normal  9.124874e-001  3.779633e-001  1.565581e-001
    outer loop
      vertex  3.500000e+001  2.100000e+001  1.900000e+001
      vertex  3.470711e+001  2.170711e+001  1.900000e+001
      vertex  3.470711e+001  2.150000e+001  1.950000e+001
    endloop
  endfacet
  facet normal  3.574054e-001  8.628561e-001  3.574080e-001
    outer loop
      vertex  3.470711e+001  2.170711e+001  1.900000e+001
      vertex  3.400000e+001  2.200000e+001  1.900000e+001
      vertex  3.470711e+001  2.150000e+001  1.950000e+001
    endloop
  endfacet
  facet normal  3.574074e-001  8.628565e-001  3.574056e-001
    outer loop
      vertex  3.470711e+001  2.150000e+001  1.950000e+001
      vertex  3.400000e+001  2.200000e+001  1.900000e+001
      vertex  3.400000e+001  2.170711e+001  1.970711e+001
    endloop
  endfacet
  facet normal  3.574077e-001  3.574077e-001  8.628554e-001
    outer loop
      vertex  3.470711e+001  2.150000e+001  1.950000e+001
      vertex  3.400000e+001  2.170711e+001  1.970711e+001
      vertex  3.470711e+001  2.100000e+001  1.970711e+001
    endloop
  endfacet
  facet normal  3.574058e-001  3.574058e-001  8.628570e-001
    outer loop
      vertex  3.470711e+001  2.100000e+001  1.970711e+001
      vertex  3.400000e+001  2.170711e+001  1.970711e+001
      vertex  3.400000e+001  2.100000e+001  2.000000e+001
    endloop
  endfacet
  facet normal  3.826823e-001  -0.000000e+000  9.238801e-001
    outer loop
      vertex  3.400000e+001  2.100000e+001  2.000000e+001
      vertex  3.400000e+001 -2.100000e+001  2.000000e+001
      vertex  3.470711e+001  2.100000e+001  1.970711e+001
    endloop
  endfacet
  facet normal  3.826823e-001  0.000000e+000  9.238801e-001
    outer loop
      vertex  3.470711e+001  2.100000e+001  1.970711e+001
      vertex  3.400000e+001 -2.100000e+001  2.000000e+001
      vertex  3.470711e+001 -2.100000e+001  1.970711e+001
    endloop
  endfacet
  facet normal  9.238801e-001  -0.000000e+000  3.826823e-001
    outer loop
      vertex  3.470711e+001  2.100000e+001  1.970711e+001
      vertex  3.470711e+001 -2.100000e+001  1.970711e+001
      vertex  3.500000e+001  2.100000e+001  1.900000e+001
    endloop
  endfacet
  facet normal  9.238801e-001  0.000000e+000  3.826823e-001
    outer loop
      vertex  3.500000e+001  2.100000e+001  1.900000e+001
      vertex  3.470711e+001 -2.100000e+001  1.970711e+001
      vertex  3.500000e+001 -2.100000e+001  1.900000e+001
    endloop
  endfacet
  facet normal  9.124874e-001 -3.779633e-001  1.565581e-001
    outer loop
      vertex  3.500000e+001 -2.100000e+001  1.900000e+001
      vertex  3.470711e+001 -2.150000e+001  1.950000e+001
      vertex  3.470711e+001 -2.170711e+001  1.900000e+001
    endloop
  endfacet
  facet normal  9.124874e-001 -1.565581e-001  3.779633e-001
    outer loop
      vertex  3.500000e+001 -2.100000e+001  1.900000e+001
      vertex  3.470711e+001 -2.100000e+001  1.970711e+001
      vertex  3.470711e+001 -2.150000e+001  1.950000e+001
    endloop
  endfacet
  facet normal  3.574054e-001 -3.574080e-001  8.628561e-001
    outer loop
      vertex  3.470711e+001 -2.100000e+001  1.970711e+001
      vertex  3.400000e+001 -2.100000e+001  2.000000e+001
      vertex  3.470711e+001 -2.150000e+001  1.950000e+001
    endloop
  endfacet
  facet normal  3.574074e-001 -3.574056e-001  8.628565e-001
    outer loop
      vertex  3.470711e+001 -2.150000e+001  1.950000e+001
      vertex  3.400000e+001 -2.100000e+001  2.000000e+001
      vertex  3.400000e+001 -2.170711e+001  1.970711e+001
    endloop
  endfacet
  facet normal  3.574077e-001 -8.628554e-001  3.574077e-001
    outer loop
      vertex  3.470711e+001 -2.150000e+001  1.950000e+001
      vertex  3.400000e+001 -2.170711e+001  1.970711e+001
      vertex  3.470711e+001 -2.170711e+001  1.900000e+001
    endloop
  endfacet
  facet normal  3.574058e-001 -8.628570e-001  3.574058e-001
    outer loop
      vertex  3.470711e+001 -2.170711e+001  1.900000e+001
      vertex  3.400000e+001 -2.170711e+001  1.970711e+001
      vertex  3.400000e+001 -2.200000e+001  1.900000e+001
    endloop
  endfacet
  facet normal  -0.000000e+000  9.727430e-001  2.318861e-001
    outer loop
      vertex  3.000000e+001 -1.700000e+001  1.900000e+001
      vertex -3.500000e+001 -1.700000e+001  1.900000e+001
      vertex  3.010754e+001 -1.710754e+001  1.945113e+001
    endloop
  endfacet
  facet normal -1.125575e-003  9.238794e-001  3.826820e-001
    outer loop
      vertex  3.010754e+001 -1.710754e+001  1.945113e+001
      vertex -3.500000e+001 -1.700000e+001  1.900000e+001
      vertex -3.500000e+001 -1.729289e+001  1.970711e+001
    endloop
  endfacet
  facet normal -9.672267e-005  8.214867e-001  5.702276e-001
    outer loop
      vertex  3.010754e+001 -1.710754e+001  1.945113e+001
      vertex -3.500000e+001 -1.729289e+001  1.970711e+001
      vertex  3.026520e+001 -1.726520e+001  1.967829e+001
    endloop
  endfacet
  facet normal  0.000000e+000  3.826822e-001  9.238800e-001
    outer loop
      vertex -3.500000e+001 -1.800000e+001  2.000000e+001
      vertex  3.100000e+001 -1.800000e+001  2.000000e+001
      vertex -3.500000e+001 -1.729289e+001  1.970711e+001
    endloop
  endfacet
  facet normal -2.629312e-003  1.632398e-001  9.865829e-001
    outer loop
      vertex -3.500000e+001 -1.729289e+001  1.970711e+001
      vertex  3.100000e+001 -1.800000e+001  2.000000e+001
      vertex  3.067300e+001 -1.767300e+001  1.994502e+001
    endloop
  endfacet
  facet normal  1.372551e-004  5.474918e-001  8.368109e-001
    outer loop
      vertex -3.500000e+001 -1.729289e+001  1.970711e+001
      vertex  3.067300e+001 -1.767300e+001  1.994502e+001
      vertex  3.026520e+001 -1.726520e+001  1.967829e+001
    endloop
  endfacet
  facet normal  0.000000e+000 -9.238800e-001  3.826822e-001
    outer loop
      vertex -3.500000e+001  1.700000e+001  1.900000e+001
      vertex  3.000000e+001  1.700000e+001  1.900000e+001
      vertex -3.500000e+001  1.729289e+001  1.970711e+001
    endloop
  endfacet
  facet normal -1.855619e-003 -9.726414e-001  2.323042e-001
    outer loop
      vertex -3.500000e+001  1.729289e+001  1.970711e+001
      vertex  3.000000e+001  1.700000e+001  1.900000e+001
      vertex  3.010754e+001  1.710754e+001  1.945113e+001
    endloop
  endfacet
  facet normal -9.672267e-005 -8.214867e-001  5.702276e-001
    outer loop
      vertex -3.500000e+001  1.729289e+001  1.970711e+001
      vertex  3.010754e+001  1.710754e+001  1.945113e+001
      vertex  3.026520e+001  1.726520e+001  1.967829e+001
    endloop
  endfacet
  facet normal  0.000000e+000 -1.657980e-001  9.861597e-001
    outer loop
      vertex  3.100000e+001  1.800000e+001  2.000000e+001
      vertex -3.500000e+001  1.800000e+001  2.000000e+001
      vertex  3.067300e+001  1.767300e+001  1.994502e+001
    endloop
  endfacet
  facet normal -1.132061e-003 -3.826820e-001  9.238794e-001
    outer loop
      vertex  3.067300e+001  1.767300e+001  1.994502e+001
      vertex -3.500000e+001  1.800000e+001  2.000000e+001
      vertex -3.500000e+001  1.729289e+001  1.970711e+001
    endloop
  endfacet
  facet normal  1.372551e-004 -5.474918e-001  8.368110e-001
    outer loop
      vertex  3.067300e+001  1.767300e+001  1.994502e+001
      vertex -3.500000e+001  1.729289e+001  1.970711e+001
      vertex  3.026520e+001  1.726520e+001  1.967829e+001
    endloop
  endfacet
  facet normal -1.000000e+000  0.000000e+000  -0.000000e+000
    outer loop
      vertex  3.000000e+001 -1.700000e+001  5.000000e+000
      vertex  3.000000e+001  1.000000e+001  1.000000e+001
      vertex  3.000000e+001  1.700000e+001  5.000000e+000
    endloop
  endfacet
  facet normal -1.000000e+000  0.000000e+000  0.000000e+000
    outer loop
      vertex  3.000000e+001  1.700000e+001  5.000000e+000
      vertex  3.000000e+001  1.000000e+001  1.000000e+001
      vertex  3.000000e+001  1.000000e+001  1.700000e+001
    endloop
  endfacet
  facet normal -1.000000e+000  0.000000e+000  0.000000e+000
    outer loop
      vertex  3.000000e+001  1.700000e+001  5.000000e+000
      vertex  3.000000e+001  1.000000e+001  1.700000e+001
      vertex  3.000000e+001  1.700000e+001  1.900000e+001
    endloop
  endfacet
  facet normal -1.000000e+000  0.000000e+000  0.000000e+000
    outer loop
      vertex  3.000000e+001  1.000000e+001  1.000000e+001
      vertex  3.000000e+001 -1.700000e+001  5.000000e+000
      vertex  3.000000e+001 -1.000000e+001  1.000000e+001
    endloop
  endfacet
  facet normal -1.000000e+000  -0.000000e+000  0.000000e+000
    outer loop
      vertex  3.000000e+001 -1.000000e+001  1.000000e+001
      vertex  3.000000e+001 -1.700000e+001  5.000000e+000
      vertex  3.000000e+001 -1.700000e+001  1.900000e+001
    endloop
  endfacet
  facet normal -1.000000e+000  0.000000e+000  0.000000e+000
    outer loop
      vertex  3.000000e+001 -1.000000e+001  1.000000e+001
      vertex  3.000000e+001 -1.700000e+001  1.900000e+001
      vertex  3.000000e+001 -1.000000e+001  1.700000e+001
    endloop
  endfacet
  facet normal -1.000000e+000  0.000000e+000  0.000000e+000
    outer loop
      vertex  3.000000e+001 -1.000000e+001  1.700000e+001
      vertex  3.000000e+001 -1.700000e+001  1.900000e+001
      vertex  3.000000e+001  1.700000e+001  1.900000e+001
    endloop
  endfacet
  facet normal -1.000000e+000  0.000000e+000  0.000000e+000
    outer loop
      vertex  3.000000e+001 -1.000000e+001  1.700000e+001
      vertex  3.000000e+001  1.700000e+001  1.900000e+001
      vertex  3.000000e+001  1.000000e+001  1.700000e+001
    endloop
  endfacet
  facet normal  0.000000e+000 -1.000000e+000  0.000000e+000
    outer loop
      vertex -3.500000e+001  1.700000e+001  1.900000e+001
      vertex -3.500000e+001  1.700000e+001  5.000000e+000
      vertex  3.000000e+001  1.700000e+001  1.900000e+001
    endloop
  endfacet
  facet normal  0.000000e+000 -1.000000e+000  -0.000000e+000
    outer loop
      vertex  3.000000e+001  1.700000e+001  1.900000e+001
      vertex -3.500000e+001  1.700000e+001  5.000000e+000
      vertex  3.000000e+001  1.700000e+001  5.000000e+000
    endloop
  endfacet
  facet normal  0.000000e+000  1.000000e+000  -0.000000e+000
    outer loop
      vertex  3.000000e+001 -1.700000e+001  1.900000e+001
      vertex  3.000000e+001 -1.700000e+001  5.000000e+000
      vertex -3.500000e+001 -1.700000e+001  1.900000e+001
    endloop
  endfacet
  facet normal  0.000000e+000  1.000000e+000  0.000000e+000
    outer loop
      vertex -3.500000e+001 -1.700000e+001  1.900000e+001
      vertex  3.000000e+001 -1.700000e+001  5.000000e+000
      vertex -3.500000e+001 -1.700000e+001  5.000000e+000
    endloop
  endfacet
  facet normal -1.657980e-001  0.000000e+000  9.861598e-001
    outer loop
      vertex  3.100000e+001 -1.800000e+001  2.000000e+001
      vertex  3.100000e+001  1.800000e+001  2.000000e+001
      vertex  3.067300e+001 -1.767300e+001  1.994502e+001
    endloop
  endfacet
  facet normal -1.657980e-001  0.000000e+000  9.861597e-001
    outer loop
      vertex  3.067300e+001 -1.767300e+001  1.994502e+001
      vertex  3.100000e+001  1.800000e+001  2.000000e+001
      vertex  3.067300e+001  1.767300e+001  1.994502e+001
    endloop
  endfacet
  facet normal -5.473976e-001  0.000000e+000  8.368728e-001
    outer loop
      vertex  3.067300e+001 -1.767300e+001  1.994502e+001
      vertex  3.067300e+001  1.767300e+001  1.994502e+001
      vertex  3.026520e+001 -1.726520e+001  1.967829e+001
    endloop
  endfacet
  facet normal -5.473976e-001  0.000000e+000  8.368728e-001
    outer loop
      vertex  3.026520e+001 -1.726520e+001  1.967829e+001
      vertex  3.067300e+001  1.767300e+001  1.994502e+001
      vertex  3.026520e+001  1.726520e+001  1.967829e+001
    endloop
  endfacet
  facet normal -8.215149e-001  0.000000e+000  5.701870e-001
    outer loop
      vertex  3.026520e+001 -1.726520e+001  1.967829e+001
      vertex  3.026520e+001  1.726520e+001  1.967829e+001
      vertex  3.010754e+001 -1.710754e+001  1.945113e+001
    endloop
  endfacet
  facet normal -8.215149e-001  0.000000e+000  5.701870e-001
    outer loop
      vertex  3.010754e+001 -1.710754e+001  1.945113e+001
      vertex  3.026520e+001  1.726520e+001  1.967829e+001
      vertex  3.010754e+001  1.710754e+001  1.945113e+001
    endloop
  endfacet
  facet normal -9.727429e-001  0.000000e+000  2.318861e-001
    outer loop
      vertex  3.010754e+001 -1.710754e+001  1.945113e+001
      vertex  3.010754e+001  1.710754e+001  1.945113e+001
      vertex  3.000000e+001 -1.700000e+001  1.900000e+001
    endloop
  endfacet
  facet normal -9.727430e-001  0.000000e+000  2.318861e-001
    outer loop
      vertex  3.000000e+001 -1.700000e+001  1.900000e+001
      vertex  3.010754e+001  1.710754e+001  1.945113e+001
      vertex  3.000000e+001  1.700000e+001  1.900000e+001
    endloop
  endfacet
  facet normal -1.000000e+000  -0.000000e+000  -0.000000e+000
    outer loop
      vertex -3.500000e+001 -1.700000e+001  5.000000e+000
      vertex -3.500000e+001  1.700000e+001  5.000000e+000
      vertex -3.500000e+001  2.200000e+001  0.000000e+000
    endloop
  endfacet
  facet normal -9.999999e-001  0.000000e+000  0.000000e+000
    outer loop
      vertex -3.500000e+001 -1.700000e+001  5.000000e+000
      vertex -3.500000e+001  2.200000e+001  0.000000e+000
      vertex -3.500000e+001 -2.200000e+001  0.000000e+000
    endloop
  endfacet
  facet normal -1.000000e+000  0.000000e+000  0.000000e+000
    outer loop
      vertex -3.500000e+001 -1.700000e+001  5.000000e+000
      vertex -3.500000e+001 -2.200000e+001  0.000000e+000
      vertex -3.500000e+001 -2.200000e+001  1.900000e+001
    endloop
  endfacet
  facet normal -1.000000e+000  0.000000e+000  0.000000e+000
    outer loop
      vertex -3.500000e+001 -1.700000e+001  5.000000e+000
      vertex -3.500000e+001 -2.200000e+001  1.900000e+001
      vertex -3.500000e+001 -2.170711e+001  1.970711e+001
    endloop
  endfacet
  facet normal -1.000000e+000  0.000000e+000  0.000000e+000
    outer loop
      vertex -3.500000e+001 -1.700000e+001  5.000000e+000
      vertex -3.500000e+001 -2.170711e+001  1.970711e+001
      vertex -3.500000e+001 -2.100000e+001  2.000000e+001
    endloop
  endfacet
  facet normal -1.000000e+000  0.000000e+000  0.000000e+000
    outer loop
      vertex -3.500000e+001 -1.700000e+001  5.000000e+000
      vertex -3.500000e+001 -2.100000e+001  2.000000e+001
      vertex -3.500000e+001 -1.800000e+001  2.000000e+001
    endloop
  endfacet
  facet normal -1.000000e+000  0.000000e+000  0.000000e+000
    outer loop
      vertex -3.500000e+001 -1.700000e+001  5.000000e+000
      vertex -3.500000e+001 -1.800000e+001  2.000000e+001
      vertex -3.500000e+001 -1.729289e+001  1.970711e+001
    endloop
  endfacet
  facet normal -1.000000e+000  0.000000e+000  0.000000e+000
    outer loop
      vertex -3.500000e+001 -1.700000e+001  5.000000e+000
      vertex -3.500000e+001 -1.729289e+001  1.970711e+001
      vertex -3.500000e+001 -1.700000e+001  1.900000e+001
    endloop
  endfacet
  facet normal -1.000000e+000  0.000000e+000  0.000000e+000
    outer loop
      vertex -3.500000e+001  1.700000e+001  5.000000e+000
      vertex -3.500000e+001  1.700000e+001  1.900000e+001
      vertex -3.500000e+001  2.200000e+001  0.000000e+000
    endloop
  endfacet
  facet normal -1.000000e+000  0.000000e+000  0.000000e+000
    outer loop
      vertex -3.500000e+001  2.200000e+001  0.000000e+000
      vertex -3.500000e+001  1.700000e+001  1.900000e+001
      vertex -3.500000e+001  1.729289e+001  1.970711e+001
    endloop
  endfacet
  facet normal -1.000000e+000  0.000000e+000  0.000000e+000
    outer loop
      vertex -3.500000e+001  2.200000e+001  0.000000e+000
      vertex -3.500000e+001  1.729289e+001  1.970711e+001
      vertex -3.500000e+001  2.100000e+001  2.000000e+001
    endloop
  endfacet
  facet normal -1.000000e+000  -0.000000e+000  0.000000e+000
    outer loop
      vertex -3.500000e+001  2.100000e+001  2.000000e+001
      vertex -3.500000e+001  1.729289e+001  1.970711e+001
      vertex -3.500000e+001  1.800000e+001  2.000000e+001
    endloop
  endfacet
  facet normal -9.999999e-001  0.000000e+000  0.000000e+000
    outer loop
      vertex -3.500000e+001  2.170711e+001  1.970711e+001
      vertex -3.500000e+001  2.200000e+001  1.900000e+001
      vertex -3.500000e+001  2.100000e+001  2.000000e+001
    endloop
  endfacet
  facet normal -1.000000e+000  0.000000e+000  0.000000e+000
    outer loop
      vertex -3.500000e+001  2.100000e+001  2.000000e+001
      vertex -3.500000e+001  2.200000e+001  1.900000e+001
      vertex -3.500000e+001  2.200000e+001  0.000000e+000
    endloop
  endfacet
  facet normal  0.000000e+000  0.000000e+000 -1.000000e+000
    outer loop
      vertex  3.000000e+001 -1.000000e+001  1.700000e+001
      vertex  3.000000e+001  1.000000e+001  1.700000e+001
      vertex  3.500000e+001 -1.000000e+001  1.700000e+001
    endloop
  endfacet
  facet normal  0.000000e+000  0.000000e+000 -1.000000e+000
    outer loop
      vertex  3.500000e+001 -1.000000e+001  1.700000e+001
      vertex  3.000000e+001  1.000000e+001  1.700000e+001
      vertex  3.500000e+001  1.000000e+001  1.700000e+001
    endloop
  endfacet
  facet normal  0.000000e+000 -1.000000e+000  0.000000e+000
    outer loop
      vertex  3.000000e+001  1.000000e+001  1.000000e+001
      vertex  3.500000e+001  1.000000e+001  1.000000e+001
      vertex  3.000000e+001  1.000000e+001  1.700000e+001
    endloop
  endfacet
  facet normal  0.000000e+000 -1.000000e+000  0.000000e+000
    outer loop
      vertex  3.000000e+001  1.000000e+001  1.700000e+001
      vertex  3.500000e+001  1.000000e+001  1.000000e+001
      vertex  3.500000e+001  1.000000e+001  1.700000e+001
    endloop
  endfacet
  facet normal  0.000000e+000  0.000000e+000  1.000000e+000
    outer loop
      vertex  3.000000e+001  1.000000e+001  1.000000e+001
      vertex  3.000000e+001 -1.000000e+001  1.000000e+001
      vertex  3.500000e+001  1.000000e+001  1.000000e+001
    endloop
  endfacet
  facet normal  0.000000e+000  0.000000e+000  1.000000e+000
    outer loop
      vertex  3.500000e+001  1.000000e+001  1.000000e+001
      vertex  3.000000e+001 -1.000000e+001  1.000000e+001
      vertex  3.500000e+001 -1.000000e+001  1.000000e+001
    endloop
  endfacet
  facet normal  0.000000e+000  1.000000e+000  0.000000e+000
    outer loop
      vertex  3.000000e+001 -1.000000e+001  1.700000e+001
      vertex  3.500000e+001 -1.000000e+001  1.700000e+001
      vertex  3.000000e+001 -1.000000e+001  1.000000e+001
    endloop
  endfacet
  facet normal  0.000000e+000  1.000000e+000  0.000000e+000
    outer loop
      vertex  3.000000e+001 -1.000000e+001  1.000000e+001
      vertex  3.500000e+001 -1.000000e+001  1.700000e+001
      vertex  3.500000e+001 -1.000000e+001  1.000000e+001
    endloop
  endfacet
  facet normal  0.000000e+000  -0.000000e+000  9.999999e-001
    outer loop
      vertex -3.300000e+001 -1.000000e+001  5.000000e+000
      vertex -3.241422e+001 -8.585787e+000  5.000000e+000
      vertex -3.100000e+001  8.000000e+000  5.000000e+000
    endloop
  endfacet
  facet normal  0.000000e+000  -0.000000e+000  9.999999e-001
    outer loop
      vertex -3.241422e+001 -8.585787e+000  5.000000e+000
      vertex -3.100000e+001 -8.000000e+000  5.000000e+000
      vertex -3.100000e+001  8.000000e+000  5.000000e+000
    endloop
  endfacet
  facet normal  0.000000e+000  0.000000e+000  1.000000e+000
    outer loop
      vertex  2.900000e+001 -1.000000e+001  5.000000e+000
      vertex  2.700000e+001  8.000000e+000  5.000000e+000
      vertex  2.841421e+001 -8.585787e+000  5.000000e+000
    endloop
  endfacet
  facet normal  0.000000e+000  0.000000e+000  9.999999e-001
    outer loop
      vertex  2.841421e+001 -8.585787e+000  5.000000e+000
      vertex  2.700000e+001  8.000000e+000  5.000000e+000
      vertex  2.700000e+001 -8.000000e+000  5.000000e+000
    endloop
  endfacet
  facet normal  0.000000e+000  0.000000e+000  1.000000e+000
    outer loop
      vertex  3.000000e+001 -1.700000e+001  5.000000e+000
      vertex  2.900000e+001  1.000000e+001  5.000000e+000
      vertex  2.841421e+001  8.585787e+000  5.000000e+000
    endloop
  endfacet
  facet normal  0.000000e+000  0.000000e+000  1.000000e+000
    outer loop
      vertex  3.000000e+001 -1.700000e+001  5.000000e+000
      vertex  2.841421e+001  8.585787e+000  5.000000e+000
      vertex  2.700000e+001  8.000000e+000  5.000000e+000
    endloop
  endfacet
  facet normal  0.000000e+000  0.000000e+000  1.000000e+000
    outer loop
      vertex  3.000000e+001 -1.700000e+001  5.000000e+000
      vertex  2.700000e+001  8.000000e+000  5.000000e+000
      vertex  2.900000e+001 -1.000000e+001  5.000000e+000
    endloop
  endfacet
  facet normal  0.000000e+000  0.000000e+000  1.000000e+000
    outer loop
      vertex  3.000000e+001 -1.700000e+001  5.000000e+000
      vertex  2.900000e+001 -1.000000e+001  5.000000e+000
      vertex  2.841421e+001 -1.141421e+001  5.000000e+000
    endloop
  endfacet
  facet normal  0.000000e+000  0.000000e+000  1.000000e+000
    outer loop
      vertex  3.000000e+001 -1.700000e+001  5.000000e+000
      vertex  2.841421e+001 -1.141421e+001  5.000000e+000
      vertex  2.700000e+001 -1.200000e+001  5.000000e+000
    endloop
  endfacet
  facet normal  0.000000e+000  0.000000e+000  1.000000e+000
    outer loop
      vertex  3.000000e+001 -1.700000e+001  5.000000e+000
      vertex  2.700000e+001 -1.200000e+001  5.000000e+000
      vertex -3.100000e+001 -1.200000e+001  5.000000e+000
    endloop
  endfacet
  facet normal  0.000000e+000  0.000000e+000  1.000000e+000
    outer loop
      vertex  3.000000e+001 -1.700000e+001  5.000000e+000
      vertex -3.100000e+001 -1.200000e+001  5.000000e+000
      vertex -3.500000e+001 -1.700000e+001  5.000000e+000
    endloop
  endfacet
  facet normal  0.000000e+000  0.000000e+000  1.000000e+000
    outer loop
      vertex -3.500000e+001 -1.700000e+001  5.000000e+000
      vertex -3.100000e+001 -1.200000e+001  5.000000e+000
      vertex -3.241422e+001 -1.141421e+001  5.000000e+000
    endloop
  endfacet
  facet normal  0.000000e+000  0.000000e+000  1.000000e+000
    outer loop
      vertex -3.500000e+001 -1.700000e+001  5.000000e+000
      vertex -3.241422e+001 -1.141421e+001  5.000000e+000
      vertex -3.300000e+001 -1.000000e+001  5.000000e+000
    endloop
  endfacet
  facet normal  0.000000e+000  -0.000000e+000  1.000000e+000
    outer loop
      vertex -3.500000e+001 -1.700000e+001  5.000000e+000
      vertex -3.300000e+001 -1.000000e+001  5.000000e+000
      vertex -3.100000e+001  8.000000e+000  5.000000e+000
    endloop
  endfacet
  facet normal  0.000000e+000  0.000000e+000  1.000000e+000
    outer loop
      vertex -3.500000e+001 -1.700000e+001  5.000000e+000
      vertex -3.100000e+001  8.000000e+000  5.000000e+000
      vertex -3.241422e+001  8.585787e+000  5.000000e+000
    endloop
  endfacet
  facet normal  0.000000e+000  0.000000e+000  1.000000e+000
    outer loop
      vertex -3.500000e+001 -1.700000e+001  5.000000e+000
      vertex -3.241422e+001  8.585787e+000  5.000000e+000
      vertex -3.300000e+001  1.000000e+001  5.000000e+000
    endloop
  endfacet
  facet normal  0.000000e+000  0.000000e+000  1.000000e+000
    outer loop
      vertex -3.500000e+001 -1.700000e+001  5.000000e+000
      vertex -3.300000e+001  1.000000e+001  5.000000e+000
      vertex -3.500000e+001  1.700000e+001  5.000000e+000
    endloop
  endfacet
  facet normal  0.000000e+000  -0.000000e+000  1.000000e+000
    outer loop
      vertex -3.500000e+001  1.700000e+001  5.000000e+000
      vertex -3.300000e+001  1.000000e+001  5.000000e+000
      vertex -3.241422e+001  1.141421e+001  5.000000e+000
    endloop
  endfacet
  facet normal  0.000000e+000  -0.000000e+000  1.000000e+000
    outer loop
      vertex -3.500000e+001  1.700000e+001  5.000000e+000
      vertex -3.241422e+001  1.141421e+001  5.000000e+000
      vertex -3.100000e+001  1.200000e+001  5.000000e+000
    endloop
  endfacet
  facet normal  0.000000e+000  -0.000000e+000  1.000000e+000
    outer loop
      vertex -3.500000e+001  1.700000e+001  5.000000e+000
      vertex -3.100000e+001  1.200000e+001  5.000000e+000
      vertex  2.700000e+001  1.200000e+001  5.000000e+000
    endloop
  endfacet
  facet normal  0.000000e+000  -0.000000e+000  1.000000e+000
    outer loop
      vertex -3.500000e+001  1.700000e+001  5.000000e+000
      vertex  2.700000e+001  1.200000e+001  5.000000e+000
      vertex  3.000000e+001  1.700000e+001  5.000000e+000
    endloop
  endfacet
  facet normal  -0.000000e+000  0.000000e+000  1.000000e+000
    outer loop
      vertex  3.000000e+001  1.700000e+001  5.000000e+000
      vertex  2.700000e+001  1.200000e+001  5.000000e+000
      vertex  2.841421e+001  1.141421e+001  5.000000e+000
    endloop
  endfacet
  facet normal  -0.000000e+000  0.000000e+000  1.000000e+000
    outer loop
      vertex  3.000000e+001  1.700000e+001  5.000000e+000
      vertex  2.841421e+001  1.141421e+001  5.000000e+000
      vertex  2.900000e+001  1.000000e+001  5.000000e+000
    endloop
  endfacet
  facet normal  -0.000000e+000  0.000000e+000  1.000000e+000
    outer loop
      vertex  3.000000e+001  1.700000e+001  5.000000e+000
      vertex  2.900000e+001  1.000000e+001  5.000000e+000
      vertex  3.000000e+001 -1.700000e+001  5.000000e+000
    endloop
  endfacet
  facet normal  -0.000000e+000  0.000000e+000  1.000000e+000
    outer loop
      vertex  2.700000e+001  1.200000e+001  5.000000e+000
      vertex -3.100000e+001  1.200000e+001  5.000000e+000
      vertex  2.558579e+001  1.141421e+001  5.000000e+000
    endloop
  endfacet
  facet normal  0.000000e+000  0.000000e+000  1.000000e+000
    outer loop
      vertex  2.558579e+001  1.141421e+001  5.000000e+000
      vertex -3.100000e+001  1.200000e+001  5.000000e+000
      vertex -2.958579e+001  1.141421e+001  5.000000e+000
    endloop
  endfacet
  facet normal  -0.000000e+000  0.000000e+000  9.999999e-001
    outer loop
      vertex  2.558579e+001  1.141421e+001  5.000000e+000
      vertex -2.958579e+001  1.141421e+001  5.000000e+000
      vertex  2.500000e+001  1.000000e+001  5.000000e+000
    endloop
  endfacet
  facet normal  0.000000e+000  0.000000e+000  1.000000e+000
    outer loop
      vertex  2.500000e+001  1.000000e+001  5.000000e+000
      vertex -2.958579e+001  1.141421e+001  5.000000e+000
      vertex -2.900000e+001  1.000000e+001  5.000000e+000
    endloop
  endfacet
  facet normal  -0.000000e+000  0.000000e+000  1.000000e+000
    outer loop
      vertex  2.500000e+001  1.000000e+001  5.000000e+000
      vertex -2.900000e+001  1.000000e+001  5.000000e+000
      vertex  2.558579e+001  8.585787e+000  5.000000e+000
    endloop
  endfacet
  facet normal  0.000000e+000  0.000000e+000  9.999999e-001
    outer loop
      vertex  2.558579e+001  8.585787e+000  5.000000e+000
      vertex -2.900000e+001  1.000000e+001  5.000000e+000
      vertex -2.958579e+001  8.585787e+000  5.000000e+000
    endloop
  endfacet
  facet normal  -0.000000e+000  0.000000e+000  1.000000e+000
    outer loop
      vertex  2.558579e+001  8.585787e+000  5.000000e+000
      vertex -2.958579e+001  8.585787e+000  5.000000e+000
      vertex  2.700000e+001  8.000000e+000  5.000000e+000
    endloop
  endfacet
  facet normal  0.000000e+000  0.000000e+000  1.000000e+000
    outer loop
      vertex  2.700000e+001  8.000000e+000  5.000000e+000
      vertex -2.958579e+001  8.585787e+000  5.000000e+000
      vertex -3.100000e+001  8.000000e+000  5.000000e+000
    endloop
  endfacet
  facet normal  -0.000000e+000  0.000000e+000  1.000000e+000
    outer loop
      vertex  2.700000e+001  8.000000e+000  5.000000e+000
      vertex -3.100000e+001  8.000000e+000  5.000000e+000
      vertex  2.700000e+001 -8.000000e+000  5.000000e+000
    endloop
  endfacet
  facet normal  0.000000e+000  0.000000e+000  1.000000e+000
    outer loop
      vertex  2.700000e+001 -8.000000e+000  5.000000e+000
      vertex -3.100000e+001  8.000000e+000  5.000000e+000
      vertex -3.100000e+001 -8.000000e+000  5.000000e+000
    endloop
  endfacet
  facet normal  -0.000000e+000  0.000000e+000  1.000000e+000
    outer loop
      vertex  2.700000e+001 -8.000000e+000  5.000000e+000
      vertex -3.100000e+001 -8.000000e+000  5.000000e+000
      vertex  2.558579e+001 -8.585787e+000  5.000000e+000
    endloop
  endfacet
  facet normal  0.000000e+000  0.000000e+000  1.000000e+000
    outer loop
      vertex  2.558579e+001 -8.585787e+000  5.000000e+000
      vertex -3.100000e+001 -8.000000e+000  5.000000e+000
      vertex -2.958579e+001 -8.585787e+000  5.000000e+000
    endloop
  endfacet
  facet normal  -0.000000e+000  0.000000e+000  9.999999e-001
    outer loop
      vertex  2.558579e+001 -8.585787e+000  5.000000e+000
      vertex -2.958579e+001 -8.585787e+000  5.000000e+000
      vertex  2.500000e+001 -1.000000e+001  5.000000e+000
    endloop
  endfacet
  facet normal  0.000000e+000  0.000000e+000  1.000000e+000
    outer loop
      vertex  2.500000e+001 -1.000000e+001  5.000000e+000
      vertex -2.958579e+001 -8.585787e+000  5.000000e+000
      vertex -2.900000e+001 -1.000000e+001  5.000000e+000
    endloop
  endfacet
  facet normal  -0.000000e+000  0.000000e+000  1.000000e+000
    outer loop
      vertex  2.500000e+001 -1.000000e+001  5.000000e+000
      vertex -2.900000e+001 -1.000000e+001  5.000000e+000
      vertex  2.558579e+001 -1.141421e+001  5.000000e+000
    endloop
  endfacet
  facet normal  0.000000e+000  0.000000e+000  9.999999e-001
    outer loop
      vertex  2.558579e+001 -1.141421e+001  5.000000e+000
      vertex -2.900000e+001 -1.000000e+001  5.000000e+000
      vertex -2.958579e+001 -1.141421e+001  5.000000e+000
    endloop
  endfacet
  facet normal  -0.000000e+000  0.000000e+000  1.000000e+000
    outer loop
      vertex  2.558579e+001 -1.141421e+001  5.000000e+000
      vertex -2.958579e+001 -1.141421e+001  5.000000e+000
      vertex  2.700000e+001 -1.200000e+001  5.000000e+000
    endloop
  endfacet
  facet normal  0.000000e+000  0.000000e+000  1.000000e+000
    outer loop
      vertex  2.700000e+001 -1.200000e+001  5.000000e+000
      vertex -2.958579e+001 -1.141421e+001  5.000000e+000
      vertex -3.100000e+001 -1.200000e+001  5.000000e+000
    endloop
  endfacet
  facet normal  3.826833e-001 -9.238796e-001  0.000000e+000
    outer loop
      vertex -3.100000e+001 -8.000000e+000  0.000000e+000
      vertex -3.241422e+001 -8.585787e+000  5.000000e+000
      vertex -3.241422e+001 -8.585787e+000  0.000000e+000
    endloop
  endfacet
  facet normal  9.238799e-001 -3.826827e-001  0.000000e+000
    outer loop
      vertex -3.241422e+001 -8.585787e+000  0.000000e+000
      vertex -3.241422e+001 -8.585787e+000  5.000000e+000
      vertex -3.300000e+001 -1.000000e+001  5.000000e+000
    endloop
  endfacet
  facet normal  9.238799e-001 -3.826827e-001  0.000000e+000
    outer loop
      vertex -3.241422e+001 -8.585787e+000  0.000000e+000
      vertex -3.300000e+001 -1.000000e+001  5.000000e+000
      vertex -3.300000e+001 -1.000000e+001  0.000000e+000
    endloop
  endfacet
  facet normal  3.826833e-001 -9.238796e-001  0.000000e+000
    outer loop
      vertex -3.241422e+001 -8.585787e+000  5.000000e+000
      vertex -3.100000e+001 -8.000000e+000  0.000000e+000
      vertex -3.100000e+001 -8.000000e+000  5.000000e+000
    endloop
  endfacet
  facet normal -3.826838e-001 -9.238794e-001  -0.000000e+000
    outer loop
      vertex -3.100000e+001 -8.000000e+000  5.000000e+000
      vertex -3.100000e+001 -8.000000e+000  0.000000e+000
      vertex -2.958579e+001 -8.585787e+000  0.000000e+000
    endloop
  endfacet
  facet normal -3.826838e-001 -9.238794e-001  0.000000e+000
    outer loop
      vertex -3.100000e+001 -8.000000e+000  5.000000e+000
      vertex -2.958579e+001 -8.585787e+000  0.000000e+000
      vertex -2.958579e+001 -8.585787e+000  5.000000e+000
    endloop
  endfacet
  facet normal -9.238794e-001 -3.826838e-001  -0.000000e+000
    outer loop
      vertex -2.958579e+001 -8.585787e+000  5.000000e+000
      vertex -2.958579e+001 -8.585787e+000  0.000000e+000
      vertex -2.900000e+001 -1.000000e+001  0.000000e+000
    endloop
  endfacet
  facet normal -9.238794e-001 -3.826838e-001  0.000000e+000
    outer loop
      vertex -2.958579e+001 -8.585787e+000  5.000000e+000
      vertex -2.900000e+001 -1.000000e+001  0.000000e+000
      vertex -2.900000e+001 -1.000000e+001  5.000000e+000
    endloop
  endfacet
  facet normal -3.826838e-001  9.238794e-001  0.000000e+000
    outer loop
      vertex -3.100000e+001 -1.200000e+001  0.000000e+000
      vertex -2.958579e+001 -1.141421e+001  5.000000e+000
      vertex -2.958579e+001 -1.141421e+001  0.000000e+000
    endloop
  endfacet
  facet normal -9.238794e-001  3.826838e-001  0.000000e+000
    outer loop
      vertex -2.958579e+001 -1.141421e+001  0.000000e+000
      vertex -2.958579e+001 -1.141421e+001  5.000000e+000
      vertex -2.900000e+001 -1.000000e+001  5.000000e+000
    endloop
  endfacet
  facet normal -9.238794e-001  3.826838e-001  0.000000e+000
    outer loop
      vertex -2.958579e+001 -1.141421e+001  0.000000e+000
      vertex -2.900000e+001 -1.000000e+001  5.000000e+000
      vertex -2.900000e+001 -1.000000e+001  0.000000e+000
    endloop
  endfacet
  facet normal -3.826838e-001  9.238794e-001  0.000000e+000
    outer loop
      vertex -2.958579e+001 -1.141421e+001  5.000000e+000
      vertex -3.100000e+001 -1.200000e+001  0.000000e+000
      vertex -3.100000e+001 -1.200000e+001  5.000000e+000
    endloop
  endfacet
  facet normal  3.826833e-001  9.238796e-001  0.000000e+000
    outer loop
      vertex -3.100000e+001 -1.200000e+001  5.000000e+000
      vertex -3.100000e+001 -1.200000e+001  0.000000e+000
      vertex -3.241422e+001 -1.141421e+001  0.000000e+000
    endloop
  endfacet
  facet normal  3.826833e-001  9.238796e-001  -0.000000e+000
    outer loop
      vertex -3.100000e+001 -1.200000e+001  5.000000e+000
      vertex -3.241422e+001 -1.141421e+001  0.000000e+000
      vertex -3.241422e+001 -1.141421e+001  5.000000e+000
    endloop
  endfacet
  facet normal  9.238799e-001  3.826827e-001  0.000000e+000
    outer loop
      vertex -3.241422e+001 -1.141421e+001  5.000000e+000
      vertex -3.241422e+001 -1.141421e+001  0.000000e+000
      vertex -3.300000e+001 -1.000000e+001  0.000000e+000
    endloop
  endfacet
  facet normal  9.238799e-001  3.826827e-001  -0.000000e+000
    outer loop
      vertex -3.241422e+001 -1.141421e+001  5.000000e+000
      vertex -3.300000e+001 -1.000000e+001  0.000000e+000
      vertex -3.300000e+001 -1.000000e+001  5.000000e+000
    endloop
  endfacet
  facet normal  3.826833e-001 -9.238796e-001  0.000000e+000
    outer loop
      vertex -3.100000e+001  1.200000e+001  0.000000e+000
      vertex -3.241422e+001  1.141421e+001  5.000000e+000
      vertex -3.241422e+001  1.141421e+001  0.000000e+000
    endloop
  endfacet
  facet normal  9.238799e-001 -3.826827e-001  0.000000e+000
    outer loop
      vertex -3.241422e+001  1.141421e+001  0.000000e+000
      vertex -3.241422e+001  1.141421e+001  5.000000e+000
      vertex -3.300000e+001  1.000000e+001  5.000000e+000
    endloop
  endfacet
  facet normal  9.238799e-001 -3.826827e-001  0.000000e+000
    outer loop
      vertex -3.241422e+001  1.141421e+001  0.000000e+000
      vertex -3.300000e+001  1.000000e+001  5.000000e+000
      vertex -3.300000e+001  1.000000e+001  0.000000e+000
    endloop
  endfacet
  facet normal  3.826833e-001 -9.238796e-001  0.000000e+000
    outer loop
      vertex -3.241422e+001  1.141421e+001  5.000000e+000
      vertex -3.100000e+001  1.200000e+001  0.000000e+000
      vertex -3.100000e+001  1.200000e+001  5.000000e+000
    endloop
  endfacet
  facet normal -3.826838e-001 -9.238794e-001  -0.000000e+000
    outer loop
      vertex -3.100000e+001  1.200000e+001  5.000000e+000
      vertex -3.100000e+001  1.200000e+001  0.000000e+000
      vertex -2.958579e+001  1.141421e+001  0.000000e+000
    endloop
  endfacet
  facet normal -3.826838e-001 -9.238794e-001  0.000000e+000
    outer loop
      vertex -3.100000e+001  1.200000e+001  5.000000e+000
      vertex -2.958579e+001  1.141421e+001  0.000000e+000
      vertex -2.958579e+001  1.141421e+001  5.000000e+000
    endloop
  endfacet
  facet normal -9.238794e-001 -3.826838e-001  -0.000000e+000
    outer loop
      vertex -2.958579e+001  1.141421e+001  5.000000e+000
      vertex -2.958579e+001  1.141421e+001  0.000000e+000
      vertex -2.900000e+001  1.000000e+001  0.000000e+000
    endloop
  endfacet
  facet normal -9.238794e-001 -3.826838e-001  0.000000e+000
    outer loop
      vertex -2.958579e+001  1.141421e+001  5.000000e+000
      vertex -2.900000e+001  1.000000e+001  0.000000e+000
      vertex -2.900000e+001  1.000000e+001  5.000000e+000
    endloop
  endfacet
  facet normal -3.826838e-001  9.238794e-001  0.000000e+000
    outer loop
      vertex -3.100000e+001  8.000000e+000  0.000000e+000
      vertex -2.958579e+001  8.585787e+000  5.000000e+000
      vertex -2.958579e+001  8.585787e+000  0.000000e+000
    endloop
  endfacet
  facet normal -9.238794e-001  3.826838e-001  0.000000e+000
    outer loop
      vertex -2.958579e+001  8.585787e+000  0.000000e+000
      vertex -2.958579e+001  8.585787e+000  5.000000e+000
      vertex -2.900000e+001  1.000000e+001  5.000000e+000
    endloop
  endfacet
  facet normal -9.238794e-001  3.826838e-001  0.000000e+000
    outer loop
      vertex -2.958579e+001  8.585787e+000  0.000000e+000
      vertex -2.900000e+001  1.000000e+001  5.000000e+000
      vertex -2.900000e+001  1.000000e+001  0.000000e+000
    endloop
  endfacet
  facet normal -3.826838e-001  9.238794e-001  0.000000e+000
    outer loop
      vertex -2.958579e+001  8.585787e+000  5.000000e+000
      vertex -3.100000e+001  8.000000e+000  0.000000e+000
      vertex -3.100000e+001  8.000000e+000  5.000000e+000
    endloop
  endfacet
  facet normal  3.826833e-001  9.238796e-001  0.000000e+000
    outer loop
      vertex -3.100000e+001  8.000000e+000  5.000000e+000
      vertex -3.100000e+001  8.000000e+000  0.000000e+000
      vertex -3.241422e+001  8.585787e+000  0.000000e+000
    endloop
  endfacet
  facet normal  3.826833e-001  9.238796e-001  -0.000000e+000
    outer loop
      vertex -3.100000e+001  8.000000e+000  5.000000e+000
      vertex -3.241422e+001  8.585787e+000  0.000000e+000
      vertex -3.241422e+001  8.585787e+000  5.000000e+000
    endloop
  endfacet
  facet normal  9.238799e-001  3.826827e-001  0.000000e+000
    outer loop
      vertex -3.241422e+001  8.585787e+000  5.000000e+000
      vertex -3.241422e+001  8.585787e+000  0.000000e+000
      vertex -3.300000e+001  1.000000e+001  0.000000e+000
    endloop
  endfacet
  facet normal  9.238799e-001  3.826827e-001  -0.000000e+000
    outer loop
      vertex -3.241422e+001  8.585787e+000  5.000000e+000
      vertex -3.300000e+001  1.000000e+001  0.000000e+000
      vertex -3.300000e+001  1.000000e+001  5.000000e+000
    endloop
  endfacet
  facet normal  3.826838e-001 -9.238794e-001  0.000000e+000
    outer loop
      vertex  2.700000e+001 -8.000000e+000  0.000000e+000
      vertex  2.558579e+001 -8.585787e+000  5.000000e+000
      vertex  2.558579e+001 -8.585787e+000  0.000000e+000
    endloop
  endfacet
  facet normal  9.238794e-001 -3.826838e-001  0.000000e+000
    outer loop
      vertex  2.558579e+001 -8.585787e+000  0.000000e+000
      vertex  2.558579e+001 -8.585787e+000  5.000000e+000
      vertex  2.500000e+001 -1.000000e+001  5.000000e+000
    endloop
  endfacet
  facet normal  9.238794e-001 -3.826838e-001  0.000000e+000
    outer loop
      vertex  2.558579e+001 -8.585787e+000  0.000000e+000
      vertex  2.500000e+001 -1.000000e+001  5.000000e+000
      vertex  2.500000e+001 -1.000000e+001  0.000000e+000
    endloop
  endfacet
  facet normal  3.826838e-001 -9.238794e-001  0.000000e+000
    outer loop
      vertex  2.558579e+001 -8.585787e+000  5.000000e+000
      vertex  2.700000e+001 -8.000000e+000  0.000000e+000
      vertex  2.700000e+001 -8.000000e+000  5.000000e+000
    endloop
  endfacet
  facet normal -3.826838e-001 -9.238794e-001  -0.000000e+000
    outer loop
      vertex  2.700000e+001 -8.000000e+000  5.000000e+000
      vertex  2.700000e+001 -8.000000e+000  0.000000e+000
      vertex  2.841421e+001 -8.585787e+000  0.000000e+000
    endloop
  endfacet
  facet normal -3.826838e-001 -9.238794e-001  0.000000e+000
    outer loop
      vertex  2.700000e+001 -8.000000e+000  5.000000e+000
      vertex  2.841421e+001 -8.585787e+000  0.000000e+000
      vertex  2.841421e+001 -8.585787e+000  5.000000e+000
    endloop
  endfacet
  facet normal -9.238794e-001 -3.826838e-001  -0.000000e+000
    outer loop
      vertex  2.841421e+001 -8.585787e+000  5.000000e+000
      vertex  2.841421e+001 -8.585787e+000  0.000000e+000
      vertex  2.900000e+001 -1.000000e+001  0.000000e+000
    endloop
  endfacet
  facet normal -9.238794e-001 -3.826838e-001  0.000000e+000
    outer loop
      vertex  2.841421e+001 -8.585787e+000  5.000000e+000
      vertex  2.900000e+001 -1.000000e+001  0.000000e+000
      vertex  2.900000e+001 -1.000000e+001  5.000000e+000
    endloop
  endfacet
  facet normal -3.826838e-001  9.238794e-001  0.000000e+000
    outer loop
      vertex  2.700000e+001 -1.200000e+001  0.000000e+000
      vertex  2.841421e+001 -1.141421e+001  5.000000e+000
      vertex  2.841421e+001 -1.141421e+001  0.000000e+000
    endloop
  endfacet
  facet normal -9.238794e-001  3.826838e-001  0.000000e+000
    outer loop
      vertex  2.841421e+001 -1.141421e+001  0.000000e+000
      vertex  2.841421e+001 -1.141421e+001  5.000000e+000
      vertex  2.900000e+001 -1.000000e+001  5.000000e+000
    endloop
  endfacet
  facet normal -9.238794e-001  3.826838e-001  0.000000e+000
    outer loop
      vertex  2.841421e+001 -1.141421e+001  0.000000e+000
      vertex  2.900000e+001 -1.000000e+001  5.000000e+000
      vertex  2.900000e+001 -1.000000e+001  0.000000e+000
    endloop
  endfacet
  facet normal -3.826838e-001  9.238794e-001  0.000000e+000
    outer loop
      vertex  2.841421e+001 -1.141421e+001  5.000000e+000
      vertex  2.700000e+001 -1.200000e+001  0.000000e+000
      vertex  2.700000e+001 -1.200000e+001  5.000000e+000
    endloop
  endfacet
  facet normal  3.826838e-001  9.238794e-001  0.000000e+000
    outer loop
      vertex  2.700000e+001 -1.200000e+001  5.000000e+000
      vertex  2.700000e+001 -1.200000e+001  0.000000e+000
      vertex  2.558579e+001 -1.141421e+001  0.000000e+000
    endloop
  endfacet
  facet normal  3.826838e-001  9.238794e-001  -0.000000e+000
    outer loop
      vertex  2.700000e+001 -1.200000e+001  5.000000e+000
      vertex  2.558579e+001 -1.141421e+001  0.000000e+000
      vertex  2.558579e+001 -1.141421e+001  5.000000e+000
    endloop
  endfacet
  facet normal  9.238794e-001  3.826838e-001  0.000000e+000
    outer loop
      vertex  2.558579e+001 -1.141421e+001  5.000000e+000
      vertex  2.558579e+001 -1.141421e+001  0.000000e+000
      vertex  2.500000e+001 -1.000000e+001  0.000000e+000
    endloop
  endfacet
  facet normal  9.238794e-001  3.826838e-001  -0.000000e+000
    outer loop
      vertex  2.558579e+001 -1.141421e+001  5.000000e+000
      vertex  2.500000e+001 -1.000000e+001  0.000000e+000
      vertex  2.500000e+001 -1.000000e+001  5.000000e+000
    endloop
  endfacet
  facet normal  3.826838e-001 -9.238794e-001  0.000000e+000
    outer loop
      vertex  2.700000e+001  1.200000e+001  0.000000e+000
      vertex  2.558579e+001  1.141421e+001  5.000000e+000
      vertex  2.558579e+001  1.141421e+001  0.000000e+000
    endloop
  endfacet
  facet normal  9.238794e-001 -3.826838e-001  0.000000e+000
    outer loop
      vertex  2.558579e+001  1.141421e+001  0.000000e+000
      vertex  2.558579e+001  1.141421e+001  5.000000e+000
      vertex  2.500000e+001  1.000000e+001  5.000000e+000
    endloop
  endfacet
  facet normal  9.238794e-001 -3.826838e-001  0.000000e+000
    outer loop
      vertex  2.558579e+001  1.141421e+001  0.000000e+000
      vertex  2.500000e+001  1.000000e+001  5.000000e+000
      vertex  2.500000e+001  1.000000e+001  0.000000e+000
    endloop
  endfacet
  facet normal  3.826838e-001 -9.238794e-001  0.000000e+000
    outer loop
      vertex  2.558579e+001  1.141421e+001  5.000000e+000
      vertex  2.700000e+001  1.200000e+001  0.000000e+000
      vertex  2.700000e+001  1.200000e+001  5.000000e+000
    endloop
  endfacet
  facet normal -3.826838e-001 -9.238794e-001  -0.000000e+000
    outer loop
      vertex  2.700000e+001  1.200000e+001  5.000000e+000
      vertex  2.700000e+001  1.200000e+001  0.000000e+000
      vertex  2.841421e+001  1.141421e+001  0.000000e+000
    endloop
  endfacet
  facet normal -3.826838e-001 -9.238794e-001  0.000000e+000
    outer loop
      vertex  2.700000e+001  1.200000e+001  5.000000e+000
      vertex  2.841421e+001  1.141421e+001  0.000000e+000
      vertex  2.841421e+001  1.141421e+001  5.000000e+000
    endloop
  endfacet
  facet normal -9.238794e-001 -3.826838e-001  -0.000000e+000
    outer loop
      vertex  2.841421e+001  1.141421e+001  5.000000e+000
      vertex  2.841421e+001  1.141421e+001  0.000000e+000
      vertex  2.900000e+001  1.000000e+001  0.000000e+000
    endloop
  endfacet
  facet normal -9.238794e-001 -3.826838e-001  0.000000e+000
    outer loop
      vertex  2.841421e+001  1.141421e+001  5.000000e+000
      vertex  2.900000e+001  1.000000e+001  0.000000e+000
      vertex  2.900000e+001  1.000000e+001  5.000000e+000
    endloop
  endfacet
  facet normal -3.826838e-001  9.238794e-001  0.000000e+000
    outer loop
      vertex  2.700000e+001  8.000000e+000  0.000000e+000
      vertex  2.841421e+001  8.585787e+000  5.000000e+000
      vertex  2.841421e+001  8.585787e+000  0.000000e+000
    endloop
  endfacet
  facet normal -9.238794e-001  3.826838e-001  0.000000e+000
    outer loop
      vertex  2.841421e+001  8.585787e+000  0.000000e+000
      vertex  2.841421e+001  8.585787e+000  5.000000e+000
      vertex  2.900000e+001  1.000000e+001  5.000000e+000
    endloop
  endfacet
  facet normal -9.238794e-001  3.826838e-001  0.000000e+000
    outer loop
      vertex  2.841421e+001  8.585787e+000  0.000000e+000
      vertex  2.900000e+001  1.000000e+001  5.000000e+000
      vertex  2.900000e+001  1.000000e+001  0.000000e+000
    endloop
  endfacet
  facet normal -3.826838e-001  9.238794e-001  0.000000e+000
    outer loop
      vertex  2.841421e+001  8.585787e+000  5.000000e+000
      vertex  2.700000e+001  8.000000e+000  0.000000e+000
      vertex  2.700000e+001  8.000000e+000  5.000000e+000
    endloop
  endfacet
  facet normal  3.826838e-001  9.238794e-001  0.000000e+000
    outer loop
      vertex  2.700000e+001  8.000000e+000  5.000000e+000
      vertex  2.700000e+001  8.000000e+000  0.000000e+000
      vertex  2.558579e+001  8.585787e+000  0.000000e+000
    endloop
  endfacet
  facet normal  3.826838e-001  9.238794e-001  -0.000000e+000
    outer loop
      vertex  2.700000e+001  8.000000e+000  5.000000e+000
      vertex  2.558579e+001  8.585787e+000  0.000000e+000
      vertex  2.558579e+001  8.585787e+000  5.000000e+000
    endloop
  endfacet
  facet normal  9.238794e-001  3.826838e-001  0.000000e+000
    outer loop
      vertex  2.558579e+001  8.585787e+000  5.000000e+000
      vertex  2.558579e+001  8.585787e+000  0.000000e+000
      vertex  2.500000e+001  1.000000e+001  0.000000e+000
    endloop
  endfacet
  facet normal  9.238794e-001  3.826838e-001  -0.000000e+000
    outer loop
      vertex  2.558579e+001  8.585787e+000  5.000000e+000
      vertex  2.500000e+001  1.000000e+001  0.000000e+000
      vertex  2.500000e+001  1.000000e+001  5.000000e+000
    endloop
  endfacet
endsolid CATIA STL
